<svg width="512" height="512" version="1.1" xmlns="http://www.w3.org/2000/svg" desc="Created with imagetracer.js version 1.2.6" ><path fill="rgb(255,254,252)" stroke="rgb(255,254,252)" stroke-width="1" opacity="0.9921568627450981" d="M 141.5 33 Q 146.3 31.3 145 35.5 L 142 37 L 138 48.5 L 137 64 L 133 64 L 133 52.5 L 136 40.5 L 141.5 33 Z " /><path fill="rgb(255,254,252)" stroke="rgb(255,254,252)" stroke-width="1" opacity="0.9921568627450981" d="M 195.5 34 Q 199.5 33.5 200 36.5 L 198.5 40 Q 194.8 40.8 194 38.5 Q 193.3 34.8 195.5 34 Z " /><path fill="rgb(255,254,252)" stroke="rgb(255,254,252)" stroke-width="1" opacity="0.9921568627450981" d="M 264 34 L 269 34 L 269 35.5 L 270 38.5 Q 269.3 40.8 265.5 40 Q 262.8 38.6 264 34 Z " /><path fill="rgb(255,254,252)" stroke="rgb(255,254,252)" stroke-width="1" opacity="0.9921568627450981" d="M 389 34 Q 401.7 32.4 407 39.5 L 409 47.5 L 409 56.5 L 406.5 58 L 405 56.5 L 404 43.5 L 401.5 40 L 395.5 38 L 390.5 38 L 389 36.5 L 389 34 Z " /><path fill="rgb(255,254,252)" stroke="rgb(255,254,252)" stroke-width="1" opacity="0.9921568627450981" d="M 215 35 L 251.5 35 L 252 37.5 L 250.5 39 L 216.5 39 L 215 35 Z " /><path fill="rgb(255,254,252)" stroke="rgb(255,254,252)" stroke-width="1" opacity="0.9921568627450981" d="M 405.5 71 L 409 73.5 Q 409.8 77.3 407.5 78 Q 403.8 78.8 403 76.5 Q 401.1 71.1 404.5 72 L 405.5 71 Z " /><path fill="rgb(255,254,252)" stroke="rgb(255,254,252)" stroke-width="1" opacity="0.9921568627450981" d="M 133 81 Q 136.8 80 138 82.5 L 139 85.5 L 135.5 88 L 133 87 L 132 83.5 L 133 81 Z " /><path fill="rgb(255,254,252)" stroke="rgb(255,254,252)" stroke-width="1" opacity="0.9921568627450981" d="M 268.5 96 L 290.5 97 L 303 102.5 Q 304.8 108.2 298.5 106 L 289.5 102 L 269.5 101 L 251.5 105 L 249 104 L 250.5 100 L 268.5 96 Z " /><path fill="rgb(255,254,252)" stroke="rgb(255,254,252)" stroke-width="1" opacity="0.9921568627450981" d="M 310.5 110 Q 315.9 108.1 315 111.5 L 316 115.5 Q 315.3 117.8 311.5 117 Q 308.3 116.3 309 111.5 L 310.5 110 Z " /><path fill="rgb(255,254,252)" stroke="rgb(255,254,252)" stroke-width="1" opacity="0.9921568627450981" d="M 404 127 L 409 127 L 409 128.5 L 410 130.5 L 409 133 Q 405.2 134 404 131.5 L 403 129.5 L 404 127 Z " /><path fill="rgb(255,254,252)" stroke="rgb(255,254,252)" stroke-width="1" opacity="0.9921568627450981" d="M 153.5 130 Q 157.5 129.5 158 132.5 Q 158.5 136.5 155.5 137 L 152 136 Q 150.8 131.4 153.5 130 Z " /><path fill="rgb(255,254,252)" stroke="rgb(255,254,252)" stroke-width="1" opacity="0.9921568627450981" d="M 406.5 149 L 409 150.5 L 409 205.5 L 407.5 207 L 405 206.5 L 405 150.5 L 406.5 149 Z " /><path fill="rgb(255,254,252)" stroke="rgb(255,254,252)" stroke-width="1" opacity="0.9921568627450981" d="M 153.5 153 L 156 153.5 L 156 212 L 152 210.5 L 152 154.5 L 153.5 153 Z " /><path fill="rgb(255,254,252)" stroke="rgb(255,254,252)" stroke-width="1" opacity="0.9921568627450981" d="M 230.5 190 L 235 193.5 Q 235.5 197.5 232.5 198 L 228 197 L 227 193.5 L 228 191 L 230.5 190 Z " /><path fill="rgb(255,254,252)" stroke="rgb(255,254,252)" stroke-width="1" opacity="0.9921568627450981" d="M 237.5 201 L 239.5 201 Q 246.1 209.4 256.5 214 L 264.5 216 L 273 216 Q 274 219.8 271.5 221 L 263.5 221 L 255.5 219 Q 243.3 214.3 236 204.5 L 237.5 201 Z " /><path fill="rgb(255,254,252)" stroke="rgb(255,254,252)" stroke-width="1" opacity="0.9921568627450981" d="M 282.5 213 L 287 215.5 Q 287.8 220.3 284.5 221 Q 280.5 221.5 280 218.5 Q 279.3 213.8 282.5 213 Z " /><path fill="rgb(255,254,252)" stroke="rgb(255,254,252)" stroke-width="1" opacity="0.9921568627450981" d="M 403 222 Q 407.7 221 409 224.5 L 408 228 Q 404.2 229 403 226.5 L 402 224.5 L 403 222 Z " /><path fill="rgb(255,254,252)" stroke="rgb(255,254,252)" stroke-width="1" opacity="0.9921568627450981" d="M 113.5 224 Q 117.3 223.3 118 225.5 Q 119 230 116.5 231 Q 112.5 231.5 112 228.5 Q 111.3 224.8 113.5 224 Z " /><path fill="rgb(255,254,252)" stroke="rgb(255,254,252)" stroke-width="1" opacity="0.9921568627450981" d="M 152.5 230 Q 156.5 229.5 157 232.5 Q 157.8 236.3 155.5 237 Q 151.5 237.5 151 234.5 Q 150.3 230.8 152.5 230 Z " /><path fill="rgb(255,254,252)" stroke="rgb(255,254,252)" stroke-width="1" opacity="0.9921568627450981" d="M 108.5 237 L 111 238.5 Q 104.7 252.8 103 271 L 99 271 L 99 264.5 L 106 239.5 L 108.5 237 Z " /><path fill="rgb(255,254,252)" stroke="rgb(255,254,252)" stroke-width="1" opacity="0.9921568627450981" d="M 210.5 240 Q 215 239 216 241.5 L 214.5 245 L 209 247.5 Q 206.7 250.7 208 257.5 L 206.5 259 L 203 258 Q 200.9 245.2 208.5 241 L 210.5 240 Z " /><path fill="rgb(255,254,252)" stroke="rgb(255,254,252)" stroke-width="1" opacity="0.9921568627450981" d="M 205.5 266 Q 210 265 211 267.5 Q 211.8 272.3 208.5 273 Q 204.8 273.8 204 271.5 L 203 269.5 L 205.5 266 Z " /><path fill="rgb(255,254,252)" stroke="rgb(255,254,252)" stroke-width="1" opacity="0.9921568627450981" d="M 254.5 280 Q 258.3 279.3 259 281.5 L 260 284.5 L 259 287 L 256.5 288 L 252 284.5 Q 251.5 280.5 254.5 280 Z " /><path fill="rgb(255,254,252)" stroke="rgb(255,254,252)" stroke-width="1" opacity="0.9921568627450981" d="M 300.5 281 Q 305.3 280.3 306 283.5 Q 306.8 287.3 304.5 288 Q 300 289 299 286.5 Q 298 282 300.5 281 Z " /><path fill="rgb(255,254,252)" stroke="rgb(255,254,252)" stroke-width="1" opacity="0.9921568627450981" d="M 271.5 283 L 291.5 283 L 293 284.5 L 291.5 288 L 271.5 288 L 270 286.5 L 271.5 283 Z " /><path fill="rgb(255,254,252)" stroke="rgb(255,254,252)" stroke-width="1" opacity="0.9921568627450981" d="M 97.5 284 L 102 285 Q 103.3 289.6 100.5 291 Q 96.5 291.5 96 288.5 Q 95.3 284.8 97.5 284 Z " /><path fill="rgb(255,254,252)" stroke="rgb(255,254,252)" stroke-width="1" opacity="0.9921568627450981" d="M 345.5 287 L 349 288.5 L 356 303.5 L 357 311 L 353 309.5 L 344 288.5 L 345.5 287 Z " /><path fill="rgb(255,254,252)" stroke="rgb(255,254,252)" stroke-width="1" opacity="0.9921568627450981" d="M 131 293 L 136 293 L 136 294.5 L 137 297.5 Q 136.3 299.8 132.5 299 Q 129.8 297.6 131 293 Z " /><path fill="rgb(255,254,252)" stroke="rgb(255,254,252)" stroke-width="1" opacity="0.9921568627450981" d="M 132.5 308 L 135 309.5 L 135 333.5 L 133.5 335 L 131 334.5 L 131 309.5 L 132.5 308 Z " /><path fill="rgb(255,254,252)" stroke="rgb(255,254,252)" stroke-width="1" opacity="0.9921568627450981" d="M 357.5 318 L 361 319 L 362 322.5 L 361 325 Q 356.3 326 355 322.5 Q 354.5 318.5 357.5 318 Z " /><path fill="rgb(255,254,252)" stroke="rgb(255,254,252)" stroke-width="1" opacity="0.9921568627450981" d="M 153.5 319 L 157 321.5 Q 157.8 325.3 155.5 326 Q 151.8 326.8 151 324.5 Q 149.1 319.1 152.5 320 L 153.5 319 Z " /><path fill="rgb(255,254,252)" stroke="rgb(255,254,252)" stroke-width="1" opacity="0.9921568627450981" d="M 151.5 337 L 154 340.5 L 154 348.5 L 156 357 Q 159.6 359.3 168.5 358 L 170 359.5 L 169.5 362 L 158.5 362 L 152 357.5 L 150 350.5 L 149 339.5 L 151.5 337 Z " /><path fill="rgb(255,254,252)" stroke="rgb(255,254,252)" stroke-width="1" opacity="0.9921568627450981" d="M 133.5 348 Q 137.5 347.5 138 350.5 Q 138.5 354.5 135.5 355 L 132 354 Q 130.8 349.4 133.5 348 Z " /><path fill="rgb(255,254,252)" stroke="rgb(255,254,252)" stroke-width="1" opacity="0.9921568627450981" d="M 427.5 353 L 431 354.5 L 434 361.5 L 437 378.5 Q 435.2 382.8 433.5 380 Q 430.5 380.5 432 373.5 L 426 354.5 L 427.5 353 Z " /><path fill="rgb(255,254,252)" stroke="rgb(255,254,252)" stroke-width="1" opacity="0.9921568627450981" d="M 185 358 L 190 358 L 190 359.5 L 191 362.5 Q 190.3 364.8 186.5 364 L 184 360.5 L 185 358 Z " /><path fill="rgb(255,254,252)" stroke="rgb(255,254,252)" stroke-width="1" opacity="0.9921568627450981" d="M 431.5 387 Q 435.3 386.3 436 388.5 Q 437.9 393.9 434.5 393 L 432.5 393 L 430 391.5 Q 429.3 387.8 431.5 387 Z " /><path fill="rgb(252,88,90)" stroke="rgb(252,88,90)" stroke-width="1" opacity="0.9686274509803922" d="M 136.5 31 L 156 31.5 L 148 37.5 L 147 40.5 L 146.5 211 Q 146.4 202.5 143 198 Q 137.4 197 136 201.5 L 120 238.5 L 109.5 254 L 108 253.5 L 118 239.5 L 128 217.5 L 128 39.5 L 132.5 33 L 136.5 31 Z M 142 32 Q 135 36 134 45 L 132 56 L 132 64 Q 133 66 137 65 Q 139 61 138 52 L 142 39 L 145 37 L 146 34 Q 145 31 142 32 Z M 135 80 Q 131 81 132 86 Q 133 89 138 88 Q 140 87 139 83 L 135 80 Z " /><path fill="rgb(252,88,90)" stroke="rgb(252,88,90)" stroke-width="1" opacity="0.9686274509803922" d="M 146.5 223 L 147 357.5 L 153.5 365 L 155 365.5 L 137.5 366 L 130 360.5 L 128 355.5 L 128 287.5 L 134 274.5 L 142 250.5 L 146.5 223 Z M 133 292 L 130 295 L 131 299 Q 132 301 136 300 L 138 297 L 137 293 L 133 292 Z M 133 307 L 130 310 L 130 334 L 134 336 L 136 334 L 136 310 L 133 307 Z M 133 348 Q 130 349 131 353 Q 132 356 137 355 Q 139 354 138 350 Q 137 347 133 348 Z " /><path fill="rgb(252,88,90)" stroke="rgb(252,88,90)" stroke-width="1" opacity="0.9686274509803922" d="M 391.5 324 L 396 333.5 L 394 334 L 391.5 324 Z " /><path fill="rgb(252,88,90)" stroke="rgb(252,88,90)" stroke-width="1" opacity="0.9686274509803922" d="M 411.5 328 L 416 335.5 L 416 338.5 L 415 338.5 L 411.5 328 Z " /><path fill="rgb(252,88,90)" stroke="rgb(252,88,90)" stroke-width="1" opacity="0.9686274509803922" d="M 274.5 339 L 299.5 339 L 302 341.5 L 302 350.5 L 300.5 352 L 297.5 353 L 276.5 353 L 272 349.5 Q 270.5 341.5 274.5 339 Z " /><path fill="rgb(252,88,90)" stroke="rgb(252,88,90)" stroke-width="1" opacity="0.9686274509803922" d="M 347.5 339 L 350 357.5 L 349 357.5 L 347 347.5 L 347.5 339 Z " /><path fill="rgb(0,0,0)" stroke="rgb(0,0,0)" stroke-width="1" opacity="0" d="M 0 0 L 512 0 L 512 512 L 0 512 L 0 0 Z M 137 31 L 133 33 L 128 40 L 128 197 Q 111 216 100 242 L 90 276 L 81 326 Q 72 354 55 375 L 55 382 L 66 391 L 85 400 L 103 405 L 120 408 L 127 408 L 128 409 L 135 408 L 138 405 Q 144 384 156 370 L 159 367 L 339 367 L 340 382 L 349 409 L 372 453 L 382 478 L 386 481 L 401 481 L 424 475 Q 436 470 446 461 L 456 449 L 456 445 Q 446 429 441 409 L 439 398 L 439 365 L 437 356 L 425 331 Q 421 327 413 327 L 413 41 L 411 37 L 405 31 L 137 31 Z M 69 169 Q 69 176 65 179 L 57 184 L 61 185 Q 68 189 70 199 L 73 190 L 80 184 Q 83 185 82 182 L 75 179 L 69 169 Z M 444 206 L 442 213 L 432 221 L 436 222 Q 442 227 445 235 L 448 227 L 457 220 L 448 215 L 444 206 Z M 227 397 L 223 407 L 214 414 Q 210 413 211 416 L 218 419 Q 225 425 228 435 Q 228 427 232 423 Q 236 416 244 415 L 236 411 Q 228 407 227 397 Z " /><path fill="rgb(51,201,167)" stroke="rgb(51,201,167)" stroke-width="1" opacity="1" d="M 163.5 46 L 162.5 48 L 163.5 46 Z " /><path fill="rgb(51,201,167)" stroke="rgb(51,201,167)" stroke-width="1" opacity="1" d="M 395.5 46 L 396.5 48 L 395.5 46 Z " /><path fill="rgb(51,201,167)" stroke="rgb(51,201,167)" stroke-width="1" opacity="1" d="M 161.5 49 L 162 323.5 L 161 323.5 L 161.5 49 Z " /><path fill="rgb(51,201,167)" stroke="rgb(51,201,167)" stroke-width="1" opacity="1" d="M 397.5 49 L 398 321.5 L 397 321.5 L 397.5 49 Z " /><path fill="rgb(51,201,167)" stroke="rgb(51,201,167)" stroke-width="1" opacity="1" d="M 266.5 92 L 269 92.5 L 266.5 93 L 266.5 92 Z " /><path fill="rgb(51,201,167)" stroke="rgb(51,201,167)" stroke-width="1" opacity="1" d="M 283.5 92 L 286 92.5 L 283.5 93 L 283.5 92 Z " /><path fill="rgb(51,201,167)" stroke="rgb(51,201,167)" stroke-width="1" opacity="1" d="M 235.5 105 L 234.5 107 L 235.5 105 Z " /><path fill="rgb(51,201,167)" stroke="rgb(51,201,167)" stroke-width="1" opacity="1" d="M 317.5 106 L 320.5 110 L 317.5 106 Z " /><path fill="rgb(51,201,167)" stroke="rgb(51,201,167)" stroke-width="1" opacity="1" d="M 325.5 114 L 327.5 117 L 325.5 114 Z " /><path fill="rgb(51,201,167)" stroke="rgb(51,201,167)" stroke-width="1" opacity="1" d="M 223.5 117 L 222.5 119 L 223.5 117 Z " /><path fill="rgb(51,201,167)" stroke="rgb(51,201,167)" stroke-width="1" opacity="1" d="M 329.5 119 L 330.5 121 L 329.5 119 Z " /><path fill="rgb(51,201,167)" stroke="rgb(51,201,167)" stroke-width="1" opacity="1" d="M 210.5 145 L 211 147.5 L 210 147.5 L 210.5 145 Z " /><path fill="rgb(51,201,167)" stroke="rgb(51,201,167)" stroke-width="1" opacity="1" d="M 341.5 148 L 342 150.5 L 341 150.5 L 341.5 148 Z " /><path fill="rgb(51,201,167)" stroke="rgb(51,201,167)" stroke-width="1" opacity="1" d="M 209.5 153 L 210 163.5 L 209 163.5 L 209.5 153 Z " /><path fill="rgb(51,201,167)" stroke="rgb(51,201,167)" stroke-width="1" opacity="1" d="M 341.5 166 L 342 168.5 L 341 168.5 L 341.5 166 Z " /><path fill="rgb(51,201,167)" stroke="rgb(51,201,167)" stroke-width="1" opacity="1" d="M 329.5 197 L 328.5 199 L 329.5 197 Z " /><path fill="rgb(51,201,167)" stroke="rgb(51,201,167)" stroke-width="1" opacity="1" d="M 224.5 200 L 226.5 203 L 224.5 200 Z " /><path fill="rgb(51,201,167)" stroke="rgb(51,201,167)" stroke-width="1" opacity="1" d="M 324.5 203 L 320.5 208 L 324.5 203 Z " /><path fill="rgb(51,201,167)" stroke="rgb(51,201,167)" stroke-width="1" opacity="1" d="M 231.5 207 L 233.5 210 L 231.5 207 Z " /><path fill="rgb(51,201,167)" stroke="rgb(51,201,167)" stroke-width="1" opacity="1" d="M 316.5 210 L 315.5 212 L 316.5 210 Z " /><path fill="rgb(51,201,167)" stroke="rgb(51,201,167)" stroke-width="1" opacity="1" d="M 262.5 223 L 265 223.5 L 262.5 224 L 262.5 223 Z " /><path fill="rgb(51,201,167)" stroke="rgb(51,201,167)" stroke-width="1" opacity="1" d="M 269.5 224 L 283 224.5 L 269.5 225 L 269.5 224 Z " /><path fill="rgb(51,201,167)" stroke="rgb(51,201,167)" stroke-width="1" opacity="1" d="M 206.5 239 L 347 239.5 L 206.5 240 L 206.5 239 Z " /><path fill="rgb(51,201,167)" stroke="rgb(51,201,167)" stroke-width="1" opacity="1" d="M 349.5 240 L 351.5 243 L 349.5 240 Z " /><path fill="rgb(51,201,167)" stroke="rgb(51,201,167)" stroke-width="1" opacity="1" d="M 389.5 321 L 392 322.5 L 390.5 323 L 389.5 321 Z " /><path fill="rgb(253,242,225)" stroke="rgb(253,242,225)" stroke-width="1" opacity="1" d="M 140.5 33 L 138.5 36 L 140.5 33 Z " /><path fill="rgb(253,242,225)" stroke="rgb(253,242,225)" stroke-width="1" opacity="1" d="M 198.5 34 L 199.5 36 L 198.5 34 Z " /><path fill="rgb(253,242,225)" stroke="rgb(253,242,225)" stroke-width="1" opacity="1" d="M 216.5 34 L 251 34.5 L 216.5 35 L 216.5 34 Z " /><path fill="rgb(253,242,225)" stroke="rgb(253,242,225)" stroke-width="1" opacity="1" d="M 263.5 35 L 264 37.5 L 263 37.5 L 263.5 35 Z " /><path fill="rgb(253,242,225)" stroke="rgb(253,242,225)" stroke-width="1" opacity="1" d="M 404.5 49 L 405 55.5 L 404 55.5 L 404.5 49 Z " /><path fill="rgb(253,242,225)" stroke="rgb(253,242,225)" stroke-width="1" opacity="1" d="M 269.5 92 L 282.5 92 L 296.5 95 Q 313.8 101.2 325 113.5 Q 335 124.5 340 140.5 L 342 151.5 L 342 165.5 L 340 175.5 L 334 190.5 Q 327.6 202.1 317.5 210 Q 306.8 218.8 291.5 223 L 286.5 224 L 265.5 224 Q 240.8 219.2 227 203.5 Q 217 193 212 177.5 L 210 168.5 L 210 148.5 Q 215.2 121.2 233.5 107 L 247.5 98 L 258.5 94 L 269.5 92 Z M 269 96 L 251 100 L 249 104 L 252 105 L 270 101 L 290 102 L 299 106 Q 305 108 303 103 L 291 97 L 269 96 Z M 311 110 L 309 112 Q 308 116 312 117 Q 315 118 316 116 L 315 112 Q 316 108 311 110 Z M 233 116 L 234 119 L 247 119 L 250 136 L 253 175 Q 246 174 242 177 L 240 181 L 241 189 Q 244 194 254 192 L 253 195 L 254 199 L 261 200 Q 264 198 263 192 L 295 193 L 294 198 Q 295 201 302 200 L 304 197 L 303 193 L 318 192 L 318 189 L 247 189 Q 243 188 244 182 L 247 179 L 299 179 L 305 177 L 310 171 L 313 136 L 312 134 L 253 134 L 250 118 L 250 116 L 233 116 Z M 231 190 L 228 191 L 227 194 L 228 197 L 233 198 Q 236 198 235 194 L 231 190 Z M 238 201 L 236 205 Q 243 214 256 219 L 264 221 L 272 221 Q 274 220 273 216 L 265 216 L 257 214 Q 246 209 240 201 L 238 201 Z M 283 213 Q 279 214 280 219 Q 281 221 285 221 Q 288 220 287 216 L 283 213 Z " /><path fill="rgb(253,242,225)" stroke="rgb(253,242,225)" stroke-width="1" opacity="1" d="M 404.5 151 L 405 205.5 L 404 205.5 L 404.5 151 Z " /><path fill="rgb(253,242,225)" stroke="rgb(253,242,225)" stroke-width="1" opacity="1" d="M 153.5 152 L 155 152.5 L 152.5 154 L 153.5 152 Z " /><path fill="rgb(253,242,225)" stroke="rgb(253,242,225)" stroke-width="1" opacity="1" d="M 156.5 154 L 157 210.5 L 156 210.5 L 156.5 154 Z " /><path fill="rgb(253,242,225)" stroke="rgb(253,242,225)" stroke-width="1" opacity="1" d="M 407.5 222 L 408.5 224 L 407.5 222 Z " /><path fill="rgb(253,242,225)" stroke="rgb(253,242,225)" stroke-width="1" opacity="1" d="M 118.5 226 L 119 229.5 L 117 230.5 L 118.5 226 Z " /><path fill="rgb(253,242,225)" stroke="rgb(253,242,225)" stroke-width="1" opacity="1" d="M 112.5 229 L 113.5 231 L 112.5 229 Z " /><path fill="rgb(253,242,225)" stroke="rgb(253,242,225)" stroke-width="1" opacity="1" d="M 151.5 235 L 152.5 237 L 151.5 235 Z " /><path fill="rgb(253,242,225)" stroke="rgb(253,242,225)" stroke-width="1" opacity="1" d="M 107.5 237 L 106.5 239 L 107.5 237 Z " /><path fill="rgb(253,242,225)" stroke="rgb(253,242,225)" stroke-width="1" opacity="1" d="M 204.5 240 L 210 240.5 L 204 245.5 L 203 258 L 206.5 259 L 208 257.5 L 208 249.5 L 210.5 246 L 216 243.5 L 215 240.5 L 348.5 240 L 352 243.5 L 352 280.5 L 351 280.5 Q 345.4 263.6 333.5 253 Q 327.6 255.1 329 250.5 L 330 246 L 322.5 246 L 321 247.5 L 320 260.5 L 318.5 262 L 313.5 255 L 310 257.5 L 307.5 263 L 306 246 L 297 246 L 297 250.5 L 298 251.5 L 298 259.5 L 299 260.5 L 299 267.5 L 301 280 L 303 280.5 L 299 282.5 Q 298 287 300.5 288 Q 305 289 306 286.5 Q 306.8 282.3 304 281.5 L 312 278.5 L 313 269.5 L 314.5 267 L 317 278.5 L 318.5 280 L 326 280 L 326 274.5 L 327.5 267 L 332 289 L 205.5 289 L 201 285.5 L 201 243.5 L 202 241 L 204.5 240 Z M 229 245 L 227 247 L 227 280 L 230 281 Q 235 282 237 280 L 238 264 L 244 279 L 245 280 L 251 280 L 252 278 L 252 259 L 253 258 L 253 248 L 252 247 Q 253 244 247 245 L 245 247 L 245 265 L 238 247 L 237 245 L 229 245 Z M 274 245 L 272 246 Q 265 250 264 259 L 264 267 L 268 276 L 274 280 Q 280 281 283 278 L 288 270 L 289 265 Q 289 255 285 250 Q 283 244 274 245 Z M 206 266 L 203 270 L 204 272 Q 205 274 209 273 Q 212 272 211 268 Q 210 265 206 266 Z M 255 280 Q 251 281 252 285 L 257 288 L 259 287 L 260 285 L 259 282 Q 258 279 255 280 Z M 272 283 L 270 287 L 272 288 L 292 288 L 293 285 L 292 283 L 272 283 Z " /><path fill="rgb(253,242,225)" stroke="rgb(253,242,225)" stroke-width="1" opacity="1" d="M 275.5 252 Q 280.5 251.5 281 255.5 L 282 266.5 L 277.5 273 Q 272.5 273.5 272 269.5 L 271 257.5 L 275.5 252 Z " /><path fill="rgb(253,242,225)" stroke="rgb(253,242,225)" stroke-width="1" opacity="1" d="M 99.5 261 L 100 263.5 L 99 263.5 L 99.5 261 Z " /><path fill="rgb(253,242,225)" stroke="rgb(253,242,225)" stroke-width="1" opacity="1" d="M 103.5 267 L 104 269.5 L 103 269.5 L 103.5 267 Z " /><path fill="rgb(253,242,225)" stroke="rgb(253,242,225)" stroke-width="1" opacity="1" d="M 100.5 271 L 103 271.5 L 100.5 272 L 100.5 271 Z " /><path fill="rgb(253,242,225)" stroke="rgb(253,242,225)" stroke-width="1" opacity="1" d="M 102.5 286 L 103 289.5 L 101 290.5 L 102.5 286 Z " /><path fill="rgb(253,242,225)" stroke="rgb(253,242,225)" stroke-width="1" opacity="1" d="M 345.5 286 L 349 287.5 L 347.5 287 L 344.5 288 L 345.5 286 Z " /><path fill="rgb(253,242,225)" stroke="rgb(253,242,225)" stroke-width="1" opacity="1" d="M 96.5 289 L 97.5 291 L 96.5 289 Z " /><path fill="rgb(253,242,225)" stroke="rgb(253,242,225)" stroke-width="1" opacity="1" d="M 353.5 310 L 356 311.5 L 354.5 312 L 353.5 310 Z " /><path fill="rgb(253,242,225)" stroke="rgb(253,242,225)" stroke-width="1" opacity="1" d="M 356.5 318 L 355.5 320 L 356.5 318 Z " /><path fill="rgb(253,242,225)" stroke="rgb(253,242,225)" stroke-width="1" opacity="1" d="M 355.5 323 L 356.5 325 L 355.5 323 Z " /><path fill="rgb(253,242,225)" stroke="rgb(253,242,225)" stroke-width="1" opacity="1" d="M 150.5 337 L 149.5 339 L 150.5 337 Z " /><path fill="rgb(253,242,225)" stroke="rgb(253,242,225)" stroke-width="1" opacity="1" d="M 149.5 342 L 150 344.5 L 149 344.5 L 149.5 342 Z " /><path fill="rgb(253,242,225)" stroke="rgb(253,242,225)" stroke-width="1" opacity="1" d="M 131.5 350 L 132 352.5 L 131 352.5 L 131.5 350 Z " /><path fill="rgb(253,242,225)" stroke="rgb(253,242,225)" stroke-width="1" opacity="1" d="M 427.5 352 L 431 353.5 L 429.5 353 L 426.5 354 L 427.5 352 Z " /><path fill="rgb(253,242,225)" stroke="rgb(253,242,225)" stroke-width="1" opacity="1" d="M 137.5 353 L 136.5 355 L 137.5 353 Z " /><path fill="rgb(253,242,225)" stroke="rgb(253,242,225)" stroke-width="1" opacity="1" d="M 186.5 357 L 189 357.5 L 186.5 358 L 186.5 357 Z " /><path fill="rgb(253,242,225)" stroke="rgb(253,242,225)" stroke-width="1" opacity="1" d="M 152.5 358 L 154.5 361 L 152.5 358 Z " /><path fill="rgb(253,242,225)" stroke="rgb(253,242,225)" stroke-width="1" opacity="1" d="M 164.5 362 L 168 362.5 L 164.5 363 L 164.5 362 Z " /><path fill="rgb(253,242,225)" stroke="rgb(253,242,225)" stroke-width="1" opacity="1" d="M 435.5 367 L 436 369.5 L 435 369.5 L 435.5 367 Z " /><path fill="rgb(253,242,225)" stroke="rgb(253,242,225)" stroke-width="1" opacity="1" d="M 431.5 373 L 432 377.5 L 431 377.5 L 431.5 373 Z " /><path fill="rgb(253,242,225)" stroke="rgb(253,242,225)" stroke-width="1" opacity="1" d="M 436.5 373 L 437 377.5 L 436 377.5 L 436.5 373 Z " /><path fill="rgb(253,242,225)" stroke="rgb(253,242,225)" stroke-width="1" opacity="1" d="M 436.5 379 L 435.5 381 L 436.5 379 Z " /><path fill="rgb(253,242,225)" stroke="rgb(253,242,225)" stroke-width="1" opacity="1" d="M 436.5 389 L 437 391.5 L 436 391.5 L 436.5 389 Z " /><path fill="rgb(253,242,225)" stroke="rgb(253,242,225)" stroke-width="1" opacity="1" d="M 430.5 392 L 433 393.5 L 431.5 394 L 430.5 392 Z " /><path fill="rgb(0,204,193)" stroke="rgb(0,204,193)" stroke-width="1" opacity="1" d="M 164.5 46 L 394.5 46 L 397 48.5 L 397 321.5 L 395.5 322 L 392.5 323 L 384.5 318 L 376.5 318 L 371.5 320 L 367 317.5 L 352 281.5 L 352 242.5 L 349.5 240 L 346.5 239 L 206.5 239 L 201 242.5 L 201 285.5 L 204.5 289 L 331.5 289 L 333 290.5 L 335 301.5 L 343 328 L 165.5 328 L 162 325.5 L 162 48.5 L 164.5 46 Z M 267 92 Q 248 95 236 105 Q 225 113 218 125 L 211 142 L 210 153 L 209 154 L 209 164 L 212 179 Q 216 191 224 201 Q 233 211 246 218 L 259 223 L 270 225 L 283 225 L 297 222 Q 311 217 321 208 Q 337 194 342 169 L 342 149 L 340 140 Q 336 126 328 117 Q 317 102 298 95 L 286 92 L 267 92 Z " /><path fill="rgb(253,184,52)" stroke="rgb(253,184,52)" stroke-width="1" opacity="0.984313725490196" d="M 156.5 31 L 404.5 31 L 411 36.5 L 413 40.5 L 413 327 L 404.5 321 L 399.5 321 L 398 321.5 L 398 49.5 L 395.5 46 L 163.5 46 L 162 47.5 L 161 49.5 L 161 323.5 L 164.5 328 L 343.5 328 L 344 329.5 L 347 336.5 L 347 340.5 L 341 351.5 L 339 367 L 159.5 367 Q 151.4 365.6 148 359.5 L 147 357.5 L 147 223.5 L 146 222.5 L 147 221.5 L 147 212.5 L 147 210.5 L 147 40.5 L 152.5 33 L 156.5 31 Z M 196 33 Q 192 34 193 39 Q 194 42 199 41 L 201 38 L 200 36 Q 200 33 196 33 Z M 264 33 L 263 39 Q 264 42 269 41 L 271 38 L 270 34 L 264 33 Z M 391 33 L 388 37 L 391 39 L 401 40 Q 406 45 404 57 Q 405 59 409 58 L 409 44 L 407 39 Q 402 33 391 33 Z M 216 34 L 214 38 L 216 39 L 252 39 L 253 36 L 252 34 L 216 34 Z M 404 71 L 402 73 L 403 78 L 406 79 L 409 78 L 410 76 L 409 73 Q 408 70 404 71 Z M 405 126 L 403 128 Q 402 133 406 134 L 409 133 Q 412 134 410 129 Q 409 125 405 126 Z M 154 129 Q 150 130 151 135 Q 152 138 157 137 Q 159 136 158 132 L 154 129 Z M 406 149 L 404 151 L 404 207 L 406 208 L 409 207 L 409 150 L 406 149 Z M 154 152 L 152 154 L 152 212 L 154 213 L 156 212 L 157 212 L 157 154 L 154 152 Z M 404 221 L 402 223 Q 401 228 405 229 L 408 228 Q 411 229 409 224 Q 408 220 404 221 Z M 152 230 Q 149 231 150 235 Q 152 238 157 237 L 158 235 L 157 232 Q 156 229 152 230 Z M 152 319 L 150 321 L 151 326 L 154 327 L 157 326 L 158 324 L 157 321 Q 156 318 152 319 Z M 151 337 L 149 339 L 149 348 L 152 359 Q 157 365 170 363 L 171 360 L 168 357 L 166 358 L 157 357 L 155 351 L 154 339 L 151 337 Z M 275 339 Q 271 342 272 350 L 277 353 L 298 353 L 301 352 L 302 351 L 302 342 L 300 339 L 275 339 Z M 186 357 Q 183 358 184 363 L 188 365 L 190 364 Q 193 365 191 360 Q 190 356 186 357 Z " /><path fill="rgb(253,184,52)" stroke="rgb(253,184,52)" stroke-width="1" opacity="0.984313725490196" d="M 234.5 116 L 248.5 116 L 250 117.5 L 252 133.5 L 253.5 135 L 311.5 135 L 313 136.5 L 312 148.5 L 311 149.5 L 310 168.5 L 305.5 176 L 301.5 178 L 247.5 178 L 244 180.5 L 243 185.5 L 244 188 L 249.5 190 L 310.5 190 Q 311.8 187.8 316.5 189 L 318 192 L 303 192 L 303 197.5 Q 302.3 200.8 297.5 200 L 294 195.5 L 295 192 L 262 192.5 L 263 196.5 L 262 199 L 256.5 200 Q 253 199 254 193.5 L 254.5 192 Q 243.7 193.8 241 187.5 L 240 182.5 L 243.5 177 L 252.5 176 L 254 174.5 Q 251.8 169.7 253 161.5 L 252 160.5 L 252 151.5 L 251 150.5 L 251 140.5 L 250 139.5 L 248 119 L 234.5 119 L 233 117.5 L 234.5 116 Z " /><path fill="rgb(253,184,52)" stroke="rgb(253,184,52)" stroke-width="1" opacity="0.984313725490196" d="M 68.5 169 L 74.5 179 L 82 182 Q 83.3 185 79.5 184 L 73 189.5 L 69.5 199 Q 67.9 189.1 60.5 185 L 57 183.5 L 65 178.5 Q 68.5 175.5 68.5 169 Z " /><path fill="rgb(253,184,52)" stroke="rgb(253,184,52)" stroke-width="1" opacity="0.984313725490196" d="M 443.5 206 L 448 215 L 457 219.5 L 448 226.5 L 444.5 235 Q 442 226.5 435.5 222 L 432 220.5 L 442 212.5 L 443.5 206 Z " /><path fill="rgb(253,184,52)" stroke="rgb(253,184,52)" stroke-width="1" opacity="0.984313725490196" d="M 122.5 229 L 123.5 231 L 122.5 229 Z " /><path fill="rgb(253,184,52)" stroke="rgb(253,184,52)" stroke-width="1" opacity="0.984313725490196" d="M 231.5 245 Q 237 244 238 247.5 L 244.5 266 L 245 246 L 251.5 246 L 252 246.5 L 252 273.5 L 249.5 280 Q 245 281 244 278.5 L 236.5 262 L 236 280 L 228 280 L 228 277.5 L 227 276.5 L 227 246 L 231.5 245 Z " /><path fill="rgb(253,184,52)" stroke="rgb(253,184,52)" stroke-width="1" opacity="0.984313725490196" d="M 274.5 245 Q 282.6 244.9 285 250.5 Q 289.5 256 288 267.5 Q 286.1 275.2 280.5 279 L 275.5 280 Q 269.4 278.6 267 273.5 Q 263.3 267.7 265 256.5 Q 266.8 249.3 272.5 246 L 274.5 245 Z M 275 252 L 272 255 L 270 261 L 272 271 Q 273 274 279 273 L 282 268 Q 283 259 281 255 Q 280 251 275 252 Z " /><path fill="rgb(253,184,52)" stroke="rgb(253,184,52)" stroke-width="1" opacity="0.984313725490196" d="M 298 246 L 304.5 246 L 305 247.5 L 306 248.5 L 306 261.5 L 307.5 264 L 312.5 255 L 315 256.5 L 319.5 263 L 322 247 L 329 246 L 327 270.5 L 325 280 L 318 280 L 318 277.5 L 314.5 266 L 313 267.5 L 312 276.5 L 309.5 280 L 302.5 280 L 302 278.5 L 300 271.5 L 298 246 Z " /><path fill="rgb(253,184,52)" stroke="rgb(253,184,52)" stroke-width="1" opacity="0.984313725490196" d="M 226.5 397 Q 228.1 406.9 235.5 411 L 244 414.5 Q 235.9 416.4 232 422.5 Q 228 427 227.5 435 Q 224.6 424.9 217.5 419 L 211 416 Q 209.8 413 213.5 414 L 223 406.5 L 226.5 397 Z " /><path fill="rgb(253,218,152)" stroke="rgb(253,218,152)" stroke-width="1" opacity="0.984313725490196" d="M 144.5 32 L 145.5 34 L 144.5 32 Z " /><path fill="rgb(253,218,152)" stroke="rgb(253,218,152)" stroke-width="1" opacity="0.984313725490196" d="M 195.5 33 L 198 33.5 L 195.5 34 L 195.5 33 Z " /><path fill="rgb(253,218,152)" stroke="rgb(253,218,152)" stroke-width="1" opacity="0.984313725490196" d="M 390.5 33 L 396 33.5 L 390.5 34 L 390.5 33 Z " /><path fill="rgb(253,218,152)" stroke="rgb(253,218,152)" stroke-width="1" opacity="0.984313725490196" d="M 215.5 34 L 215 35.5 L 216 38.5 L 214 37.5 L 215.5 34 Z " /><path fill="rgb(253,218,152)" stroke="rgb(253,218,152)" stroke-width="1" opacity="0.984313725490196" d="M 251.5 34 L 253 37.5 L 252 37.5 L 251.5 34 Z " /><path fill="rgb(253,218,152)" stroke="rgb(253,218,152)" stroke-width="1" opacity="0.984313725490196" d="M 263.5 38 Q 264.3 40.8 268.5 40 L 270 39.5 Q 269.3 41.8 265.5 41 L 263.5 38 Z " /><path fill="rgb(253,218,152)" stroke="rgb(253,218,152)" stroke-width="1" opacity="0.984313725490196" d="M 390.5 38 L 394 38.5 L 390.5 39 L 390.5 38 Z " /><path fill="rgb(253,218,152)" stroke="rgb(253,218,152)" stroke-width="1" opacity="0.984313725490196" d="M 401.5 40 L 402.5 42 L 401.5 40 Z " /><path fill="rgb(253,218,152)" stroke="rgb(253,218,152)" stroke-width="1" opacity="0.984313725490196" d="M 403.5 43 L 404 45.5 L 403 45.5 L 403.5 43 Z " /><path fill="rgb(253,218,152)" stroke="rgb(253,218,152)" stroke-width="1" opacity="0.984313725490196" d="M 132.5 55 L 133 61.5 L 132 61.5 L 132.5 55 Z " /><path fill="rgb(253,218,152)" stroke="rgb(253,218,152)" stroke-width="1" opacity="0.984313725490196" d="M 137.5 56 L 138 61.5 L 137 61.5 L 137.5 56 Z " /><path fill="rgb(253,218,152)" stroke="rgb(253,218,152)" stroke-width="1" opacity="0.984313725490196" d="M 132.5 63 L 133.5 65 L 132.5 63 Z " /><path fill="rgb(253,218,152)" stroke="rgb(253,218,152)" stroke-width="1" opacity="0.984313725490196" d="M 403.5 71 L 402.5 73 L 403.5 71 Z " /><path fill="rgb(253,218,152)" stroke="rgb(253,218,152)" stroke-width="1" opacity="0.984313725490196" d="M 407.5 71 L 408.5 73 L 407.5 71 Z " /><path fill="rgb(253,218,152)" stroke="rgb(253,218,152)" stroke-width="1" opacity="0.984313725490196" d="M 137.5 81 L 138.5 83 L 137.5 81 Z " /><path fill="rgb(253,218,152)" stroke="rgb(253,218,152)" stroke-width="1" opacity="0.984313725490196" d="M 138.5 86 L 137.5 88 L 138.5 86 Z " /><path fill="rgb(253,218,152)" stroke="rgb(253,218,152)" stroke-width="1" opacity="0.984313725490196" d="M 250.5 118 L 251 120.5 L 250 120.5 L 250.5 118 Z " /><path fill="rgb(253,218,152)" stroke="rgb(253,218,152)" stroke-width="1" opacity="0.984313725490196" d="M 247.5 119 L 248 121.5 L 247 121.5 L 247.5 119 Z " /><path fill="rgb(253,218,152)" stroke="rgb(253,218,152)" stroke-width="1" opacity="0.984313725490196" d="M 251.5 124 L 252 126.5 L 251 126.5 L 251.5 124 Z " /><path fill="rgb(253,218,152)" stroke="rgb(253,218,152)" stroke-width="1" opacity="0.984313725490196" d="M 248.5 125 L 249 127.5 L 248 127.5 L 248.5 125 Z " /><path fill="rgb(253,218,152)" stroke="rgb(253,218,152)" stroke-width="1" opacity="0.984313725490196" d="M 404.5 126 L 403.5 128 L 404.5 126 Z " /><path fill="rgb(253,218,152)" stroke="rgb(253,218,152)" stroke-width="1" opacity="0.984313725490196" d="M 156.5 130 L 157.5 132 L 156.5 130 Z " /><path fill="rgb(253,218,152)" stroke="rgb(253,218,152)" stroke-width="1" opacity="0.984313725490196" d="M 252.5 131 L 253 134 L 311.5 134 L 313 135.5 L 311.5 135 L 253.5 135 L 252 133.5 L 252.5 131 Z " /><path fill="rgb(253,218,152)" stroke="rgb(253,218,152)" stroke-width="1" opacity="0.984313725490196" d="M 249.5 132 L 250 134.5 L 249 134.5 L 249.5 132 Z " /><path fill="rgb(253,218,152)" stroke="rgb(253,218,152)" stroke-width="1" opacity="0.984313725490196" d="M 405.5 133 L 408 133.5 L 405.5 134 L 405.5 133 Z " /><path fill="rgb(253,218,152)" stroke="rgb(253,218,152)" stroke-width="1" opacity="0.984313725490196" d="M 312.5 139 L 313 143.5 L 312 143.5 L 312.5 139 Z " /><path fill="rgb(253,218,152)" stroke="rgb(253,218,152)" stroke-width="1" opacity="0.984313725490196" d="M 250.5 140 L 251 144.5 L 250 144.5 L 250.5 140 Z " /><path fill="rgb(253,218,152)" stroke="rgb(253,218,152)" stroke-width="1" opacity="0.984313725490196" d="M 311.5 149 L 312 153.5 L 311 153.5 L 311.5 149 Z " /><path fill="rgb(253,218,152)" stroke="rgb(253,218,152)" stroke-width="1" opacity="0.984313725490196" d="M 251.5 151 L 252 155.5 L 251 155.5 L 251.5 151 Z " /><path fill="rgb(253,218,152)" stroke="rgb(253,218,152)" stroke-width="1" opacity="0.984313725490196" d="M 155.5 152 L 156.5 154 L 155.5 152 Z " /><path fill="rgb(253,218,152)" stroke="rgb(253,218,152)" stroke-width="1" opacity="0.984313725490196" d="M 310.5 160 L 311 163.5 L 310 163.5 L 310.5 160 Z " /><path fill="rgb(253,218,152)" stroke="rgb(253,218,152)" stroke-width="1" opacity="0.984313725490196" d="M 252.5 161 L 253 165.5 L 252 165.5 L 252.5 161 Z " /><path fill="rgb(253,218,152)" stroke="rgb(253,218,152)" stroke-width="1" opacity="0.984313725490196" d="M 253.5 172 L 254 174.5 Q 252.5 177.5 246.5 176 L 246.5 175 L 253 175 L 253.5 172 Z " /><path fill="rgb(253,218,152)" stroke="rgb(253,218,152)" stroke-width="1" opacity="0.984313725490196" d="M 247.5 178 L 299 178.5 L 247.5 179 L 247.5 178 Z " /><path fill="rgb(253,218,152)" stroke="rgb(253,218,152)" stroke-width="1" opacity="0.984313725490196" d="M 245.5 179 L 244.5 181 L 245.5 179 Z " /><path fill="rgb(253,218,152)" stroke="rgb(253,218,152)" stroke-width="1" opacity="0.984313725490196" d="M 243.5 182 L 244 185.5 L 243 185.5 L 243.5 182 Z " /><path fill="rgb(253,218,152)" stroke="rgb(253,218,152)" stroke-width="1" opacity="0.984313725490196" d="M 241.5 188 L 243.5 191 L 241.5 188 Z " /><path fill="rgb(253,218,152)" stroke="rgb(253,218,152)" stroke-width="1" opacity="0.984313725490196" d="M 249.5 189 L 311 189.5 L 249.5 190 L 249.5 189 Z " /><path fill="rgb(253,218,152)" stroke="rgb(253,218,152)" stroke-width="1" opacity="0.984313725490196" d="M 303.5 193 L 304 196.5 L 303 196.5 L 303.5 193 Z " /><path fill="rgb(253,218,152)" stroke="rgb(253,218,152)" stroke-width="1" opacity="0.984313725490196" d="M 253.5 194 L 254 196.5 L 253 196.5 L 253.5 194 Z " /><path fill="rgb(253,218,152)" stroke="rgb(253,218,152)" stroke-width="1" opacity="0.984313725490196" d="M 294.5 196 L 297 199.5 L 294 197.5 L 294.5 196 Z " /><path fill="rgb(253,218,152)" stroke="rgb(253,218,152)" stroke-width="1" opacity="0.984313725490196" d="M 127.5 197 L 128 217.5 L 112 249.5 L 114 248.5 L 124 230.5 L 129 218.5 L 129 215.5 L 136 201.5 L 139.5 198 Q 143.9 196.5 143 199.5 L 146 205.5 L 147 221.5 L 142 250.5 L 134 274.5 L 128 287.5 L 128 355.5 Q 129.3 361.3 133.5 364 L 137.5 366 L 158 366 L 144 388.5 L 138 404.5 L 134.5 408 L 127.5 409 L 126.5 408 L 119.5 408 L 102.5 405 L 84.5 400 L 65.5 391 L 55 381.5 L 55 374.5 Q 70.3 354.8 80 329.5 L 90 275.5 L 99 244.5 Q 109.7 217.2 127.5 197 Z M 115 223 L 112 224 Q 110 229 114 231 Q 118 232 119 230 L 118 224 L 115 223 Z M 108 237 L 102 250 L 98 270 Q 99 273 103 272 Q 105 270 104 264 L 111 239 L 108 237 Z M 112 250 L 109 254 L 112 252 L 112 250 Z M 98 284 Q 95 285 96 290 Q 97 292 102 291 Q 104 290 103 287 Q 102 283 98 284 Z " /><path fill="rgb(253,218,152)" stroke="rgb(253,218,152)" stroke-width="1" opacity="0.984313725490196" d="M 302.5 198 L 301.5 200 L 302.5 198 Z " /><path fill="rgb(253,218,152)" stroke="rgb(253,218,152)" stroke-width="1" opacity="0.984313725490196" d="M 404.5 206 L 408 207.5 L 405.5 208 L 404.5 206 Z " /><path fill="rgb(253,218,152)" stroke="rgb(253,218,152)" stroke-width="1" opacity="0.984313725490196" d="M 152.5 211 L 155 212.5 L 153.5 213 L 152.5 211 Z " /><path fill="rgb(253,218,152)" stroke="rgb(253,218,152)" stroke-width="1" opacity="0.984313725490196" d="M 403.5 221 L 402.5 223 L 403.5 221 Z " /><path fill="rgb(253,218,152)" stroke="rgb(253,218,152)" stroke-width="1" opacity="0.984313725490196" d="M 404.5 228 L 407 228.5 L 404.5 229 L 404.5 228 Z " /><path fill="rgb(253,218,152)" stroke="rgb(253,218,152)" stroke-width="1" opacity="0.984313725490196" d="M 151.5 230 L 150.5 232 L 151.5 230 Z " /><path fill="rgb(253,218,152)" stroke="rgb(253,218,152)" stroke-width="1" opacity="0.984313725490196" d="M 155.5 230 L 156.5 232 L 155.5 230 Z " /><path fill="rgb(253,218,152)" stroke="rgb(253,218,152)" stroke-width="1" opacity="0.984313725490196" d="M 228.5 245 L 231 245.5 L 228.5 246 L 228.5 245 Z " /><path fill="rgb(253,218,152)" stroke="rgb(253,218,152)" stroke-width="1" opacity="0.984313725490196" d="M 236.5 245 L 237.5 247 L 236.5 245 Z " /><path fill="rgb(253,218,152)" stroke="rgb(253,218,152)" stroke-width="1" opacity="0.984313725490196" d="M 246.5 245 L 252 245.5 L 246.5 246 L 246.5 245 Z " /><path fill="rgb(253,218,152)" stroke="rgb(253,218,152)" stroke-width="1" opacity="0.984313725490196" d="M 271.5 246 L 267.5 251 L 271.5 246 Z " /><path fill="rgb(253,218,152)" stroke="rgb(253,218,152)" stroke-width="1" opacity="0.984313725490196" d="M 281.5 246 L 284.5 250 L 281.5 246 Z " /><path fill="rgb(253,218,152)" stroke="rgb(253,218,152)" stroke-width="1" opacity="0.984313725490196" d="M 297.5 246 L 298 250.5 L 297 250.5 L 297.5 246 Z " /><path fill="rgb(253,218,152)" stroke="rgb(253,218,152)" stroke-width="1" opacity="0.984313725490196" d="M 322.5 246 L 324 246.5 L 322 247 L 321.5 250 L 321 247.5 L 322.5 246 Z " /><path fill="rgb(253,218,152)" stroke="rgb(253,218,152)" stroke-width="1" opacity="0.984313725490196" d="M 329.5 246 L 330 249.5 L 329 249.5 L 329.5 246 Z " /><path fill="rgb(253,218,152)" stroke="rgb(253,218,152)" stroke-width="1" opacity="0.984313725490196" d="M 252.5 247 L 253 257.5 L 252 257.5 L 252.5 247 Z " /><path fill="rgb(253,218,152)" stroke="rgb(253,218,152)" stroke-width="1" opacity="0.984313725490196" d="M 285.5 251 L 287 253.5 L 286 253.5 L 285.5 251 Z " /><path fill="rgb(253,218,152)" stroke="rgb(253,218,152)" stroke-width="1" opacity="0.984313725490196" d="M 274.5 252 L 272.5 255 L 274.5 252 Z " /><path fill="rgb(253,218,152)" stroke="rgb(253,218,152)" stroke-width="1" opacity="0.984313725490196" d="M 278.5 252 L 280.5 255 L 278.5 252 Z " /><path fill="rgb(253,218,152)" stroke="rgb(253,218,152)" stroke-width="1" opacity="0.984313725490196" d="M 329.5 253 L 333.5 253 L 340 259.5 Q 355.5 284 365 314.5 L 369.5 320 L 383.5 318 L 390.5 323 L 395.5 323 Q 398.2 320.2 404.5 321 L 411.5 327 L 416.5 327 L 425 331 L 437 355.5 L 439 364.5 L 439 397.5 L 441 408.5 Q 446.4 428.6 456 444.5 L 456 448.5 L 445.5 461 Q 435.1 470.6 420.5 476 L 400.5 481 L 385.5 481 L 381 475.5 L 373 454.5 L 345 398.5 L 339 375.5 L 339 361.5 L 341 351.5 L 346.5 341 L 348 354.5 L 349.5 358 L 350 353.5 L 349 352.5 L 348 339.5 L 332 288.5 L 327 262.5 Q 329.8 260.8 328 254.5 L 329.5 253 Z M 346 286 L 344 288 L 344 291 L 355 312 L 358 310 L 349 288 L 346 286 Z M 357 318 Q 354 319 355 324 L 360 326 Q 363 325 362 321 Q 361 317 357 318 Z M 392 324 L 394 334 L 396 334 L 392 324 Z M 412 328 L 415 339 L 416 339 L 416 336 L 412 328 Z M 428 352 L 426 354 L 431 371 L 431 378 L 434 381 L 437 380 Q 437 364 431 354 L 428 352 Z M 433 386 L 430 387 L 429 390 L 432 394 Q 436 395 437 392 L 436 387 L 433 386 Z " /><path fill="rgb(253,218,152)" stroke="rgb(253,218,152)" stroke-width="1" opacity="0.984313725490196" d="M 320.5 254 L 321 256.5 L 320 256.5 L 320.5 254 Z " /><path fill="rgb(253,218,152)" stroke="rgb(253,218,152)" stroke-width="1" opacity="0.984313725490196" d="M 306.5 255 L 307 261.5 L 306 261.5 L 306.5 255 Z " /><path fill="rgb(253,218,152)" stroke="rgb(253,218,152)" stroke-width="1" opacity="0.984313725490196" d="M 298.5 256 L 299 259.5 L 298 259.5 L 298.5 256 Z " /><path fill="rgb(253,218,152)" stroke="rgb(253,218,152)" stroke-width="1" opacity="0.984313725490196" d="M 315.5 257 L 316.5 259 L 315.5 257 Z " /><path fill="rgb(253,218,152)" stroke="rgb(253,218,152)" stroke-width="1" opacity="0.984313725490196" d="M 264.5 258 L 265 266.5 L 264 266.5 L 264.5 258 Z " /><path fill="rgb(253,218,152)" stroke="rgb(253,218,152)" stroke-width="1" opacity="0.984313725490196" d="M 270.5 260 L 271 264.5 L 270 264.5 L 270.5 260 Z " /><path fill="rgb(253,218,152)" stroke="rgb(253,218,152)" stroke-width="1" opacity="0.984313725490196" d="M 288.5 260 L 289 264.5 L 288 264.5 L 288.5 260 Z " /><path fill="rgb(253,218,152)" stroke="rgb(253,218,152)" stroke-width="1" opacity="0.984313725490196" d="M 236.5 262 Q 239.3 263.3 237 264.5 L 236.5 280 L 236.5 262 Z " /><path fill="rgb(253,218,152)" stroke="rgb(253,218,152)" stroke-width="1" opacity="0.984313725490196" d="M 299.5 264 L 300 267.5 L 299 267.5 L 299.5 264 Z " /><path fill="rgb(253,218,152)" stroke="rgb(253,218,152)" stroke-width="1" opacity="0.984313725490196" d="M 314.5 266 L 314 267.5 L 313.5 269 L 313 267.5 L 314.5 266 Z " /><path fill="rgb(253,218,152)" stroke="rgb(253,218,152)" stroke-width="1" opacity="0.984313725490196" d="M 272.5 270 L 274.5 273 L 272.5 270 Z " /><path fill="rgb(253,218,152)" stroke="rgb(253,218,152)" stroke-width="1" opacity="0.984313725490196" d="M 279.5 271 L 278.5 273 L 279.5 271 Z " /><path fill="rgb(253,218,152)" stroke="rgb(253,218,152)" stroke-width="1" opacity="0.984313725490196" d="M 326.5 271 L 327 273.5 L 326 273.5 L 326.5 271 Z " /><path fill="rgb(253,218,152)" stroke="rgb(253,218,152)" stroke-width="1" opacity="0.984313725490196" d="M 300.5 272 L 301 275.5 L 300 275.5 L 300.5 272 Z " /><path fill="rgb(253,218,152)" stroke="rgb(253,218,152)" stroke-width="1" opacity="0.984313725490196" d="M 251.5 274 L 252 277.5 L 251 277.5 L 251.5 274 Z " /><path fill="rgb(253,218,152)" stroke="rgb(253,218,152)" stroke-width="1" opacity="0.984313725490196" d="M 268.5 275 L 271.5 279 L 268.5 275 Z " /><path fill="rgb(253,218,152)" stroke="rgb(253,218,152)" stroke-width="1" opacity="0.984313725490196" d="M 283.5 276 L 282.5 278 L 283.5 276 Z " /><path fill="rgb(253,218,152)" stroke="rgb(253,218,152)" stroke-width="1" opacity="0.984313725490196" d="M 227.5 277 L 228 279.5 L 227 279.5 L 227.5 277 Z " /><path fill="rgb(253,218,152)" stroke="rgb(253,218,152)" stroke-width="1" opacity="0.984313725490196" d="M 311.5 277 L 312 278.5 L 310 279.5 L 311.5 277 Z " /><path fill="rgb(253,218,152)" stroke="rgb(253,218,152)" stroke-width="1" opacity="0.984313725490196" d="M 229.5 280 L 235 280.5 L 229.5 281 L 229.5 280 Z " /><path fill="rgb(253,218,152)" stroke="rgb(253,218,152)" stroke-width="1" opacity="0.984313725490196" d="M 303.5 280 L 307 280.5 L 303.5 281 L 303.5 280 Z " /><path fill="rgb(253,218,152)" stroke="rgb(253,218,152)" stroke-width="1" opacity="0.984313725490196" d="M 131.5 298 L 134 299.5 L 132.5 300 L 131.5 298 Z " /><path fill="rgb(253,218,152)" stroke="rgb(253,218,152)" stroke-width="1" opacity="0.984313725490196" d="M 130.5 309 L 131 333.5 L 130 333.5 L 130.5 309 Z " /><path fill="rgb(253,218,152)" stroke="rgb(253,218,152)" stroke-width="1" opacity="0.984313725490196" d="M 135.5 309 L 136 333.5 L 135 333.5 L 135.5 309 Z " /><path fill="rgb(253,218,152)" stroke="rgb(253,218,152)" stroke-width="1" opacity="0.984313725490196" d="M 151.5 319 L 151 320.5 L 150.5 322 L 150 320.5 L 151.5 319 Z " /><path fill="rgb(253,218,152)" stroke="rgb(253,218,152)" stroke-width="1" opacity="0.984313725490196" d="M 155.5 319 L 156.5 321 L 155.5 319 Z " /><path fill="rgb(253,218,152)" stroke="rgb(253,218,152)" stroke-width="1" opacity="0.984313725490196" d="M 154.5 344 L 155 347.5 L 154 347.5 L 154.5 344 Z " /><path fill="rgb(253,218,152)" stroke="rgb(253,218,152)" stroke-width="1" opacity="0.984313725490196" d="M 149.5 345 L 150 347.5 L 149 347.5 L 149.5 345 Z " /><path fill="rgb(253,218,152)" stroke="rgb(253,218,152)" stroke-width="1" opacity="0.984313725490196" d="M 136.5 348 L 137.5 350 L 136.5 348 Z " /><path fill="rgb(253,218,152)" stroke="rgb(253,218,152)" stroke-width="1" opacity="0.984313725490196" d="M 159.5 357 L 164 357.5 L 159.5 358 L 159.5 357 Z " /><path fill="rgb(253,218,152)" stroke="rgb(253,218,152)" stroke-width="1" opacity="0.984313725490196" d="M 185.5 357 L 184.5 359 L 185.5 357 Z " /><path fill="rgb(253,218,152)" stroke="rgb(253,218,152)" stroke-width="1" opacity="0.984313725490196" d="M 170.5 361 L 169.5 363 L 168 362.5 L 170.5 361 Z " /><path fill="rgb(253,218,152)" stroke="rgb(253,218,152)" stroke-width="1" opacity="0.984313725490196" d="M 159.5 362 L 164 362.5 L 159.5 363 L 159.5 362 Z " /><path fill="rgb(253,218,152)" stroke="rgb(253,218,152)" stroke-width="1" opacity="0.984313725490196" d="M 184.5 362 L 185.5 364 L 184.5 362 Z " /></svg>