<svg width="512" height="512" version="1.1" xmlns="http://www.w3.org/2000/svg" desc="Created with imagetracer.js version 1.2.6" ><path fill="rgb(201,222,233)" stroke="rgb(201,222,233)" stroke-width="1" opacity="0.984313725490196" d="M 241.5 16 L 254.5 16 L 265.5 19 Q 278.4 24.1 287 33.5 Q 296.3 42.4 299 57 Q 320.3 55.9 328 69.5 L 332 80.5 L 332 90.5 L 328 100.5 L 324 106 L 313.5 112 L 311 112 L 307 123.5 L 306 141.5 L 307 142.5 L 308 156.5 L 311 169 L 290.5 160 L 275.5 156 L 264.5 155 L 263.5 154 L 241.5 153 L 240.5 154 L 229.5 154 L 228.5 155 L 216.5 156 L 197.5 161 L 198 159.5 Q 200.5 152 199 140.5 L 196 129 Q 204.7 127.1 209 119.5 L 211.5 115 L 228.5 124 L 237.5 126 L 248.5 126 L 247.5 124 L 235 112.5 L 223 92.5 L 219 76.5 L 219 64.5 L 222 49.5 L 225 41.5 Q 231.2 26.7 241.5 16 Z " /><path fill="rgb(201,222,233)" stroke="rgb(201,222,233)" stroke-width="1" opacity="0.984313725490196" d="M 319.5 235 L 318.5 237 L 319.5 235 Z " /><path fill="rgb(201,222,233)" stroke="rgb(201,222,233)" stroke-width="1" opacity="0.984313725490196" d="M 330.5 245 L 328.5 248 L 330.5 245 Z " /><path fill="rgb(201,222,233)" stroke="rgb(201,222,233)" stroke-width="1" opacity="0.984313725490196" d="M 303.5 340 L 304 364.5 L 307.5 368 Q 313.3 368.8 315 365.5 Q 317.7 361.7 316 353.5 L 319.5 350 Q 326.4 349.1 328 353.5 L 328 377.5 L 331.5 382 Q 338.8 383.3 340 378.5 L 340.5 340 L 342.5 341 L 343.5 340 L 370.5 340 L 372 341.5 L 372 349.5 L 371 353 Q 368 352 369 355 L 366 355 L 366 356.5 Q 362.1 379.6 347.5 392 Q 338.8 400.3 326.5 405 L 311.5 409 L 298.5 409 L 297.5 408 L 285.5 407 L 271.5 402 Q 258 395 249 383.5 L 244 375.5 Q 250.5 376 253 372.5 Q 255.7 369.2 255 362.5 L 252 354 L 250 354 Q 251.1 351.3 248.5 352 L 243.5 350 L 238 352 L 236.5 355 L 232 351.5 L 231 342.5 L 232.5 341 L 302.5 341 L 303.5 340 Z " /><path fill="rgb(0,0,0)" stroke="rgb(0,0,0)" stroke-width="1" opacity="0" d="M 0 0 L 512 0 L 512 512 L 0 512 L 0 0 Z M 236 16 Q 217 20 207 31 Q 198 38 194 50 L 190 65 L 190 78 Q 176 76 170 83 L 163 91 L 159 104 Q 162 105 160 112 L 164 121 L 174 129 L 184 132 L 190 132 L 196 130 L 199 141 L 199 156 L 198 157 Q 199 161 197 160 L 169 131 Q 170 127 166 129 L 162 141 L 159 157 L 159 181 L 160 182 L 160 187 Q 150 197 144 212 L 140 228 L 140 247 L 142 256 Q 147 271 156 283 Q 171 302 195 311 L 188 332 Q 186 355 198 364 L 194 382 L 194 405 L 197 418 L 201 466 L 202 467 L 203 478 L 206 484 L 214 489 L 225 492 Q 231 493 235 490 L 236 488 L 241 485 Q 244 484 243 478 L 241 475 L 230 471 L 238 442 L 240 440 Q 245 439 247 441 L 262 440 L 262 466 L 265 475 Q 270 480 279 482 Q 289 484 291 479 Q 290 475 295 477 Q 298 476 297 471 Q 293 466 286 465 L 298 428 Q 305 420 306 409 Q 332 407 347 393 Q 362 380 366 357 Q 365 354 369 355 Q 374 352 372 342 L 371 340 L 344 340 L 349 331 Q 348 327 351 328 L 355 323 Q 356 314 352 311 L 367 294 L 367 289 L 363 285 Q 357 286 355 291 L 344 290 L 343 289 L 334 289 L 332 288 L 337 283 L 357 283 L 357 281 L 338 281 Q 349 268 353 248 L 353 227 L 349 212 L 345 204 L 347 195 L 347 168 L 344 153 L 340 144 Q 341 140 339 141 L 323 159 L 313 169 L 311 169 L 308 157 L 307 143 L 306 142 L 307 124 L 311 112 L 314 112 L 323 107 Q 329 101 332 91 Q 334 76 328 70 Q 320 56 299 57 L 297 49 L 288 35 Q 279 24 266 19 L 255 16 L 236 16 Z " /><path fill="rgb(0,0,0)" stroke="rgb(0,0,0)" stroke-width="1" opacity="0" d="M 330.5 290 L 350.5 292 L 352 293.5 L 343.5 301 L 324 295.5 L 330.5 290 Z " /><path fill="rgb(0,0,0)" stroke="rgb(0,0,0)" stroke-width="1" opacity="0" d="M 322.5 297 L 342 302 L 341.5 304 L 333.5 304 L 329 307.5 Q 326.7 310.7 328 317.5 L 321.5 324 L 312.5 325 Q 304.4 322.1 300 315.5 L 298 311 Q 312.1 306.4 322.5 297 Z " /><path fill="rgb(233,243,240)" stroke="rgb(233,243,240)" stroke-width="1" opacity="0.996078431372549" d="M 236.5 16 L 241 16.5 Q 229.3 28.8 223 46.5 L 219 64.5 L 219 76.5 L 225 97.5 Q 233.4 113.2 246.5 124 L 249 125.5 L 237.5 126 Q 221.8 123.2 211.5 115 L 201.5 127 L 194.5 131 L 183.5 132 Q 171 130 165 121.5 Q 157.7 114.3 160 97.5 Q 162.5 89 168.5 84 L 179.5 78 L 190 78 Q 189.5 41.8 211.5 27 Q 221.3 18.8 236.5 16 Z " /><path fill="rgb(233,243,240)" stroke="rgb(233,243,240)" stroke-width="1" opacity="0.996078431372549" d="M 309.5 195 L 312 195.5 L 309.5 196 L 309.5 195 Z " /><path fill="rgb(233,243,240)" stroke="rgb(233,243,240)" stroke-width="1" opacity="0.996078431372549" d="M 322.5 195 L 325 195.5 L 322.5 196 L 322.5 195 Z " /><path fill="rgb(233,243,240)" stroke="rgb(233,243,240)" stroke-width="1" opacity="0.996078431372549" d="M 210.5 199 L 214 199.5 L 210.5 200 L 210.5 199 Z " /><path fill="rgb(233,243,240)" stroke="rgb(233,243,240)" stroke-width="1" opacity="0.996078431372549" d="M 299.5 199 L 298.5 201 L 299.5 199 Z " /><path fill="rgb(233,243,240)" stroke="rgb(233,243,240)" stroke-width="1" opacity="0.996078431372549" d="M 334.5 199 L 335.5 201 L 334.5 199 Z " /><path fill="rgb(233,243,240)" stroke="rgb(233,243,240)" stroke-width="1" opacity="0.996078431372549" d="M 296.5 201 L 289.5 209 L 296.5 201 Z " /><path fill="rgb(233,243,240)" stroke="rgb(233,243,240)" stroke-width="1" opacity="0.996078431372549" d="M 337.5 201 L 340.5 205 L 337.5 201 Z " /><path fill="rgb(233,243,240)" stroke="rgb(233,243,240)" stroke-width="1" opacity="0.996078431372549" d="M 190.5 206 L 189.5 208 L 190.5 206 Z " /><path fill="rgb(233,243,240)" stroke="rgb(233,243,240)" stroke-width="1" opacity="0.996078431372549" d="M 342.5 206 L 344.5 209 L 342.5 206 Z " /><path fill="rgb(233,243,240)" stroke="rgb(233,243,240)" stroke-width="1" opacity="0.996078431372549" d="M 234.5 207 L 240.5 214 L 234.5 207 Z " /><path fill="rgb(233,243,240)" stroke="rgb(233,243,240)" stroke-width="1" opacity="0.996078431372549" d="M 183.5 213 L 182.5 215 L 183.5 213 Z " /><path fill="rgb(233,243,240)" stroke="rgb(233,243,240)" stroke-width="1" opacity="0.996078431372549" d="M 181.5 216 L 180.5 218 L 181.5 216 Z " /><path fill="rgb(233,243,240)" stroke="rgb(233,243,240)" stroke-width="1" opacity="0.996078431372549" d="M 282.5 226 Q 285.2 243.3 297.5 251 Q 305.6 257.4 320.5 257 Q 337.9 253.9 346 241.5 Q 350.5 235.5 351.5 226 L 352 233.5 Q 349.1 249.1 338.5 257 L 327.5 263 Q 320.8 265.3 310.5 264 Q 296.6 260.4 289 250.5 Q 281 241.9 282.5 226 Z " /><path fill="rgb(233,243,240)" stroke="rgb(233,243,240)" stroke-width="1" opacity="0.996078431372549" d="M 175.5 233 Q 178.3 249.2 189.5 257 Q 195.4 262.2 204.5 264 L 219.5 264 Q 232.6 260.6 240 251.5 Q 245.6 245.6 247.5 236 L 248 242.5 Q 245 255.5 236.5 263 L 222.5 271 Q 215.8 273.3 205.5 272 Q 190.8 268.8 183 258.5 L 176 244.5 L 175.5 233 Z " /><path fill="rgb(233,243,240)" stroke="rgb(233,243,240)" stroke-width="1" opacity="0.996078431372549" d="M 214.5 241 L 213.5 243 L 214.5 241 Z " /><path fill="rgb(233,243,240)" stroke="rgb(233,243,240)" stroke-width="1" opacity="0.996078431372549" d="M 224.5 241 L 225.5 243 L 224.5 241 Z " /><path fill="rgb(233,243,240)" stroke="rgb(233,243,240)" stroke-width="1" opacity="0.996078431372549" d="M 304 340 Q 309.6 342.3 320.5 341 L 321.5 340 L 340 340 L 340 378.5 L 336.5 382 Q 330.3 383.3 329 379.5 L 328 377.5 L 328 353.5 L 325.5 351 L 319.5 350 L 316 353.5 Q 318.1 363.6 313.5 367 L 307.5 368 L 304 364.5 L 304 340 Z " /><path fill="rgb(254,254,254)" stroke="rgb(254,254,254)" stroke-width="1" opacity="0.9921568627450981" d="M 206.5 31 L 205.5 33 L 206.5 31 Z " /><path fill="rgb(254,254,254)" stroke="rgb(254,254,254)" stroke-width="1" opacity="0.9921568627450981" d="M 325.5 103 L 324.5 105 L 325.5 103 Z " /><path fill="rgb(254,254,254)" stroke="rgb(254,254,254)" stroke-width="1" opacity="0.9921568627450981" d="M 312.5 195 L 321.5 195 L 331.5 198 L 342 205 L 349 216.5 L 351 223.5 L 351 230.5 Q 347 244 336.5 251 Q 328.4 257.4 313.5 257 Q 296.1 253.9 288 241.5 L 283 230.5 L 283 223.5 Q 286.1 208.1 297.5 201 Q 303.5 196.5 312.5 195 Z M 322 234 L 320 235 L 317 239 Q 316 245 318 247 L 322 249 L 329 248 Q 333 246 332 239 Q 331 233 322 234 Z " /><path fill="rgb(254,254,254)" stroke="rgb(254,254,254)" stroke-width="1" opacity="0.9921568627450981" d="M 205.5 200 Q 217.9 198.6 225.5 202 Q 235.8 206.7 242 215.5 Q 247.8 222.7 248 235.5 Q 244.6 248.6 235.5 256 L 223.5 263 Q 216 265.5 204.5 264 Q 189.4 260.6 182 249.5 L 176 236.5 L 176 229.5 Q 179.2 215.7 188.5 208 Q 195.1 202.1 205.5 200 Z M 217 240 L 215 241 L 211 248 L 212 252 L 218 256 L 224 255 L 228 249 L 226 243 Q 224 239 217 240 Z " /><path fill="rgb(251,177,33)" stroke="rgb(251,177,33)" stroke-width="1" opacity="0.984313725490196" d="M 166 129 Q 169.8 127.5 169 130.5 L 197.5 161 L 222.5 155 L 251.5 153 L 252.5 154 L 270.5 155 L 287.5 159 L 309.5 169 L 312.5 169 L 338.5 141 Q 341.1 140.2 340 143.5 L 344 152.5 L 347 167.5 L 347 194.5 L 345 203.5 L 349 211.5 L 353 226.5 L 353 247.5 Q 349.2 268.2 337.5 281 L 318.5 282 L 317.5 283 L 305.5 284 L 303 285.5 L 306.5 286 L 321.5 283 L 335.5 283 L 331.5 288 L 300 288.5 L 324.5 289 L 330 290.5 L 324.5 295 L 319.5 295 L 302.5 292 L 302.5 293 L 316.5 295 L 322 297.5 Q 311.7 306.5 298 311 Q 300.1 317.9 306.5 322 Q 310 326 318.5 325 L 322.5 323 L 318 328.5 L 308 339.5 L 320 340.5 L 307.5 341 L 303.5 340 L 302.5 341 L 231 341 Q 229 351.7 235.5 355 L 240.5 351 L 246.5 351 L 252 355.5 L 254 358.5 L 255 367.5 L 249.5 375 L 244 375.5 Q 250.2 387.3 260.5 395 Q 270.7 403.3 285.5 407 L 306 409 Q 304.6 420.2 298 427.5 L 286 465 Q 293.3 465.6 297 470.5 Q 297.8 476.3 293.5 477 Q 290.2 475.9 291 478.5 Q 288.8 483.3 280.5 482 L 269.5 478 L 265 473.5 L 262 465.5 L 262 440 L 246.5 441 Q 245 438.5 239.5 440 Q 233.6 452.6 231 468.5 L 229 470.5 L 239.5 475 L 243 478.5 Q 243.8 484.3 239.5 485 L 236 486.5 L 233.5 490 Q 229.7 492.7 221.5 491 L 210.5 487 L 206 482.5 L 203 476.5 L 201 465.5 L 197 417.5 L 194 404.5 L 194 381.5 L 198 363.5 Q 185.9 354.6 188 331.5 L 195 311 Q 171.2 301.6 156 282.5 Q 146.7 271.3 142 255.5 L 140 246.5 L 140 227.5 L 144 211.5 Q 149.9 196.9 160 186.5 L 160 181.5 L 159 180.5 L 159 156.5 L 162 140.5 L 166 129 Z M 201 180 L 194 183 Q 189 188 187 196 L 188 198 L 193 191 Q 199 183 212 182 Q 208 179 201 180 Z M 318 180 L 311 183 Q 323 183 330 189 L 335 196 L 337 196 L 333 187 Q 329 179 318 180 Z M 310 195 L 297 201 Q 285 209 282 227 Q 282 242 289 251 Q 297 260 311 264 Q 321 265 328 263 L 339 257 Q 349 249 352 234 Q 352 217 345 209 Q 340 201 331 197 Q 323 193 310 195 Z M 211 199 L 198 202 L 191 206 L 180 218 L 175 234 L 176 245 L 183 259 Q 191 269 206 272 Q 216 273 223 271 L 237 263 Q 245 256 248 243 L 248 230 Q 246 220 241 214 Q 235 206 227 202 L 221 200 L 211 199 Z M 261 245 L 256 249 L 257 255 L 268 264 L 274 263 L 284 252 L 283 248 L 280 245 L 261 245 Z M 189 279 L 189 281 L 220 281 L 221 282 L 237 283 L 238 284 L 242 284 L 223 280 L 189 279 Z M 260 279 L 258 281 L 259 285 Q 262 289 269 291 Q 285 293 289 284 L 288 280 Q 281 278 280 281 L 272 281 L 271 280 L 260 279 Z M 247 283 Q 246 286 250 285 Q 251 282 247 283 Z M 296 284 Q 295 288 298 287 Q 299 283 296 284 Z M 254 285 Q 253 288 256 287 Q 257 284 254 285 Z M 222 286 L 221 287 L 201 288 L 200 289 L 193 289 L 192 291 L 195 290 L 212 289 L 213 288 L 225 288 L 226 287 L 242 287 L 243 288 L 246 288 L 245 286 L 222 286 Z M 289 286 Q 288 289 291 288 Q 292 285 289 286 Z M 243 290 L 217 295 L 191 303 L 191 304 L 222 295 L 243 292 L 243 290 Z M 250 290 Q 249 293 252 292 Q 253 289 250 290 Z M 296 290 L 294 292 L 297 293 L 296 290 Z " /><path fill="rgb(251,177,33)" stroke="rgb(251,177,33)" stroke-width="1" opacity="0.984313725490196" d="M 333.5 304 L 341.5 304 L 353 311.5 Q 356.2 314.8 355 322.5 L 350.5 328 Q 347.9 327.2 349 330.5 L 343.5 340 L 341.5 341 L 340.5 340 L 322 339.5 L 335 325.5 L 328 316.5 L 328 309.5 L 331.5 305 L 333.5 304 Z " /><path fill="rgb(170,107,53)" stroke="rgb(170,107,53)" stroke-width="1" opacity="0.9725490196078431" d="M 200.5 180 Q 207.9 179.1 212 181.5 Q 199.1 182.6 193 190.5 L 187.5 198 L 187 195.5 Q 188.7 187.7 193.5 183 L 200.5 180 Z " /><path fill="rgb(170,107,53)" stroke="rgb(170,107,53)" stroke-width="1" opacity="0.9725490196078431" d="M 317.5 180 Q 329.2 179.3 333 186.5 L 337 195.5 L 335 196 L 329.5 189 Q 323.2 182.8 311 182.5 L 317.5 180 Z " /><path fill="rgb(170,107,53)" stroke="rgb(170,107,53)" stroke-width="1" opacity="0.9725490196078431" d="M 322.5 234 Q 329.4 233.1 331 237.5 L 332 242.5 L 327.5 248 L 323.5 249 L 318 245.5 L 317 239.5 L 320.5 235 L 322.5 234 Z " /><path fill="rgb(170,107,53)" stroke="rgb(170,107,53)" stroke-width="1" opacity="0.9725490196078431" d="M 217.5 240 Q 224.4 239.1 226 243.5 L 227 250.5 L 224.5 254 L 219.5 256 L 213 252.5 L 212 245.5 L 215.5 241 L 217.5 240 Z " /><path fill="rgb(170,107,53)" stroke="rgb(170,107,53)" stroke-width="1" opacity="0.9725490196078431" d="M 260.5 245 L 279.5 245 L 283 247.5 L 284 251.5 L 273.5 263 L 267.5 264 L 257 254.5 L 256 248.5 L 260.5 245 Z " /><path fill="rgb(170,107,53)" stroke="rgb(170,107,53)" stroke-width="1" opacity="0.9725490196078431" d="M 189 279 L 222.5 280 L 242 283.5 L 237.5 284 L 236.5 283 L 220.5 282 L 219.5 281 L 189 281 L 189 279 Z " /><path fill="rgb(170,107,53)" stroke="rgb(170,107,53)" stroke-width="1" opacity="0.9725490196078431" d="M 259.5 279 L 270.5 280 L 271.5 281 L 279.5 281 Q 281.3 278.2 287.5 280 L 289 283.5 Q 284.8 293.3 268.5 291 Q 262 289.5 259 284.5 L 258 280.5 L 259.5 279 Z " /><path fill="rgb(170,107,53)" stroke="rgb(170,107,53)" stroke-width="1" opacity="0.9725490196078431" d="M 332.5 281 L 356.5 281 L 357 283 L 321.5 283 L 320.5 284 L 313.5 284 L 303.5 286 L 303.5 285 L 318.5 282 L 331.5 282 L 332.5 281 Z " /><path fill="rgb(170,107,53)" stroke="rgb(170,107,53)" stroke-width="1" opacity="0.9725490196078431" d="M 247 283 Q 251.1 281.7 250 285 Q 245.9 286.3 247 283 Z " /><path fill="rgb(170,107,53)" stroke="rgb(170,107,53)" stroke-width="1" opacity="0.9725490196078431" d="M 296 284 Q 299.3 282.9 298 287 Q 294.7 288.1 296 284 Z " /><path fill="rgb(170,107,53)" stroke="rgb(170,107,53)" stroke-width="1" opacity="0.9725490196078431" d="M 254 285 Q 257 284 256 287 Q 253 288 254 285 Z " /><path fill="rgb(170,107,53)" stroke="rgb(170,107,53)" stroke-width="1" opacity="0.9725490196078431" d="M 362.5 285 L 367 288.5 L 367 293.5 L 351.5 310 L 342 305 Q 343.7 300.9 339.5 302 L 320.5 296 L 304.5 294 L 302 292.5 L 306.5 292 L 323.5 295 L 344.5 301 L 352 293.5 L 350.5 292 L 325.5 290 L 324.5 289 L 300 288.5 L 332.5 288 L 333.5 289 L 342.5 289 L 343.5 290 L 354.5 291 Q 356.8 286.3 362.5 285 Z " /><path fill="rgb(170,107,53)" stroke="rgb(170,107,53)" stroke-width="1" opacity="0.9725490196078431" d="M 221.5 286 L 244.5 286 L 246 287.5 L 242.5 288 L 241.5 287 L 225.5 287 L 224.5 288 L 212.5 288 L 211.5 289 L 194.5 290 L 192 291 L 192.5 289 L 199.5 289 L 200.5 288 L 220.5 287 L 221.5 286 Z " /><path fill="rgb(170,107,53)" stroke="rgb(170,107,53)" stroke-width="1" opacity="0.9725490196078431" d="M 289 286 Q 292 285 291 288 Q 288 289 289 286 Z " /><path fill="rgb(170,107,53)" stroke="rgb(170,107,53)" stroke-width="1" opacity="0.9725490196078431" d="M 242.5 290 L 243 292 L 221.5 295 L 190.5 304 L 190.5 303 L 216.5 295 L 242.5 290 Z " /><path fill="rgb(170,107,53)" stroke="rgb(170,107,53)" stroke-width="1" opacity="0.9725490196078431" d="M 250 290 Q 253 289 252 292 Q 249 293 250 290 Z " /><path fill="rgb(170,107,53)" stroke="rgb(170,107,53)" stroke-width="1" opacity="0.9725490196078431" d="M 295.5 290 L 297 293 L 294 291.5 L 295.5 290 Z " /><path fill="rgb(170,107,53)" stroke="rgb(170,107,53)" stroke-width="1" opacity="0.9725490196078431" d="M 328.5 317 L 335 325.5 L 321.5 340 L 308 339.5 L 328.5 317 Z " /><path fill="rgb(170,107,53)" stroke="rgb(170,107,53)" stroke-width="1" opacity="0.9725490196078431" d="M 252.5 372 L 251.5 374 L 252.5 372 Z " /><path fill="rgb(170,107,53)" stroke="rgb(170,107,53)" stroke-width="1" opacity="0.9725490196078431" d="M 229.5 470 L 230.5 472 L 229.5 470 Z " /><path fill="rgb(170,107,53)" stroke="rgb(170,107,53)" stroke-width="1" opacity="0.9725490196078431" d="M 265.5 474 L 267.5 477 L 265.5 474 Z " /><path fill="rgb(170,107,53)" stroke="rgb(170,107,53)" stroke-width="1" opacity="0.9725490196078431" d="M 296.5 474 L 294.5 477 L 296.5 474 Z " /><path fill="rgb(170,107,53)" stroke="rgb(170,107,53)" stroke-width="1" opacity="0.9725490196078431" d="M 240.5 475 L 242.5 478 L 240.5 475 Z " /><path fill="rgb(170,107,53)" stroke="rgb(170,107,53)" stroke-width="1" opacity="0.9725490196078431" d="M 242.5 482 L 240.5 485 L 242.5 482 Z " /><path fill="rgb(170,107,53)" stroke="rgb(170,107,53)" stroke-width="1" opacity="0.9725490196078431" d="M 206.5 483 L 208.5 486 L 206.5 483 Z " /><path fill="rgb(170,107,53)" stroke="rgb(170,107,53)" stroke-width="1" opacity="0.9725490196078431" d="M 237.5 485 L 239 485.5 L 236.5 487 L 237.5 485 Z " /><path fill="rgb(170,107,53)" stroke="rgb(170,107,53)" stroke-width="1" opacity="0.9725490196078431" d="M 235.5 488 L 234.5 490 L 235.5 488 Z " /><path fill="rgb(170,107,53)" stroke="rgb(170,107,53)" stroke-width="1" opacity="0.9725490196078431" d="M 224.5 491 L 230 491.5 L 224.5 492 L 224.5 491 Z " /></svg>