<?xml version="1.0" encoding="UTF-8"?>
<svg version="1.1" xmlns="http://www.w3.org/2000/svg" width="512" height="512">
<path d="M0 0 C1.01790619 0.00215515 2.03581238 0.0043103 3.08456421 0.00653076 C17.69363523 0.05620146 32.02575853 0.30709809 46.375 3.3125 C47.34985352 3.51117676 48.32470703 3.70985352 49.32910156 3.91455078 C97.7109774 14.03517194 141.69928269 35.9516877 177.375 70.3125 C178.3640332 71.26068604 178.3640332 71.26068604 179.37304688 72.22802734 C188.86130305 81.37247479 197.6012044 90.66984009 205.375 101.3125 C206.23306152 102.46355017 207.09113451 103.61459177 207.94921875 104.765625 C213.98736829 112.95680614 219.34595521 121.47054105 224.375 130.3125 C224.73948242 130.94430176 225.10396484 131.57610352 225.47949219 132.22705078 C247.08534998 169.97532572 256.85198095 212.74189997 256.6875 255.9375 C256.68534485 256.95540619 256.6831897 257.97331238 256.68096924 259.02206421 C256.63129854 273.63113523 256.38040191 287.96325853 253.375 302.3125 C253.07698486 303.77478027 253.07698486 303.77478027 252.77294922 305.26660156 C242.65232806 353.6484774 220.7358123 397.63678269 186.375 433.3125 C185.74287598 433.97185547 185.11075195 434.63121094 184.45947266 435.31054688 C175.31502521 444.79880305 166.01765991 453.5387044 155.375 461.3125 C154.22394983 462.17056152 153.07290823 463.02863451 151.921875 463.88671875 C143.73224019 469.92427396 135.22961724 475.30707302 126.375 480.3125 C125.66778809 480.7146875 124.96057617 481.116875 124.23193359 481.53125 C101.09654164 494.5566741 75.92537591 503.30551461 49.9375 508.625 C49.21860596 508.77235596 48.49971191 508.91971191 47.7590332 509.0715332 C33.08339502 511.86090125 18.55831162 512.66142619 3.64770508 512.62817383 C0.70811513 512.6250221 -2.2304558 512.64854926 -5.16992188 512.67382812 C-18.54306192 512.71848737 -31.43916711 511.51301542 -44.625 509.3125 C-46.33055054 509.03031616 -46.33055054 509.03031616 -48.07055664 508.74243164 C-91.33802759 500.97044532 -132.38793216 480.98345309 -165.625 452.3125 C-166.37007813 451.67828125 -167.11515625 451.0440625 -167.8828125 450.390625 C-181.38779833 438.57948485 -194.05918743 425.82889772 -204.625 411.3125 C-205.48149066 410.16255169 -206.33826433 409.01281411 -207.1953125 407.86328125 C-213.23534209 399.67315742 -218.61867614 391.16870382 -223.625 382.3125 C-224.0271875 381.60528809 -224.429375 380.89807617 -224.84375 380.16943359 C-237.8691741 357.03404164 -246.61801461 331.86287591 -251.9375 305.875 C-252.08485596 305.15610596 -252.23221191 304.43721191 -252.3840332 303.6965332 C-255.35789088 288.05024391 -255.99800362 272.57681954 -255.9375 256.6875 C-255.93534485 255.66959381 -255.9331897 254.65168762 -255.93096924 253.60293579 C-255.88129854 238.99386477 -255.63040191 224.66174147 -252.625 210.3125 C-252.42632324 209.33764648 -252.22764648 208.36279297 -252.02294922 207.35839844 C-241.90232806 158.9765226 -219.9858123 114.98821731 -185.625 79.3125 C-184.99287598 78.65314453 -184.36075195 77.99378906 -183.70947266 77.31445312 C-174.56502521 67.82619695 -165.26765991 59.0862956 -154.625 51.3125 C-153.47394983 50.45443848 -152.32290823 49.59636549 -151.171875 48.73828125 C-142.98224019 42.70072604 -134.47961724 37.31792698 -125.625 32.3125 C-124.91778809 31.9103125 -124.21057617 31.508125 -123.48193359 31.09375 C-100.34654164 18.0683259 -75.17537591 9.31948539 -49.1875 4 C-48.46860596 3.85264404 -47.74971191 3.70528809 -47.0090332 3.5534668 C-31.36274391 0.57960912 -15.88931954 -0.06050362 0 0 Z " fill="#B32676" transform="translate(255.625,-0.3125)"/>
<path d="M0 0 C28.42471312 22.9165853 50.07940794 55.53761675 54.36303711 92.48632812 C54.97932357 99.57293914 55.04463047 106.68198067 55.07006836 113.79101562 C55.0730191 114.51845978 55.07596985 115.24590393 55.07901001 115.99539185 C55.09009069 128.0351332 53.9454063 139.28287835 50.75756836 150.91601562 C50.41725586 152.35074219 50.41725586 152.35074219 50.07006836 153.81445312 C48.06123565 161.57356947 44.30807121 168.76634725 40.75756836 175.91601562 C40.2097168 177.02460938 39.66186523 178.13320313 39.09741211 179.27539062 C21.31724275 213.74285842 -9.71502114 237.85052635 -46.24243164 249.91601562 C-69.40044266 256.64207094 -96.79027531 258.20632071 -120.24243164 251.91601562 C-120.99202148 251.71733887 -121.74161133 251.51866211 -122.51391602 251.31396484 C-134.14248936 248.15608335 -144.69992 243.71207744 -155.24243164 237.91601562 C-156.29946289 237.35011719 -157.35649414 236.78421875 -158.44555664 236.20117188 C-169.27441535 230.17726487 -185.5234721 220.3539347 -191.24243164 208.91601562 C-191.83971074 204.35703719 -192.28704279 199.84191111 -190.04321289 195.70507812 C-186.57254678 191.56126015 -183.43596351 189.21129876 -177.99243164 188.47851562 C-170.98311719 189.29626898 -166.64300541 193.46944832 -161.61743164 198.16601562 C-138.85706272 219.05566929 -108.98899198 227.00415565 -78.67651367 226.04785156 C-50.64363803 224.52952129 -21.61647529 210.24920633 -2.89575195 189.41748047 C19.04225802 164.03294618 27.64630903 134.0758327 25.75756836 100.91601562 C23.87401312 77.47779069 13.13927904 55.39792141 -2.24243164 37.91601562 C-2.70649414 37.30886719 -3.17055664 36.70171875 -3.64868164 36.07617188 C-19.64913067 15.34388273 -48.52074247 3.66403401 -73.63305664 0.20458984 C-85.54228094 -1.11246696 -97.50172651 -0.39210027 -109.24243164 1.91601562 C-110.47993164 2.14933594 -111.71743164 2.38265625 -112.99243164 2.62304688 C-140.8514881 8.42004523 -166.28039575 26.87091006 -181.80493164 50.54101562 C-194.36457615 70.37062292 -198.70850653 89.62824353 -200.24243164 112.91601562 C-191.00243164 112.91601562 -181.76243164 112.91601562 -172.24243164 112.91601562 C-176.25536747 118.93541937 -180.2656524 124.65178612 -184.74243164 130.29101562 C-189.82121583 136.74822957 -194.76964086 143.2836853 -199.61743164 149.91601562 C-204.34354483 156.37992051 -209.13495458 162.74580266 -214.24243164 168.91601562 C-217.60170933 167.7962564 -218.0515792 167.1799896 -220.03540039 164.40039062 C-220.57519531 163.65426514 -221.11499023 162.90813965 -221.67114258 162.1394043 C-222.25154297 161.32318604 -222.83194336 160.50696777 -223.42993164 159.66601562 C-224.6873564 157.92651161 -225.946538 156.1882765 -227.20727539 154.45117188 C-227.8658252 153.54254395 -228.524375 152.63391602 -229.20288086 151.69775391 C-232.56389393 147.11367647 -236.03038096 142.611467 -239.49243164 138.10351562 C-244.15477929 132.01327849 -248.77768278 125.90304999 -253.24243164 119.66601562 C-253.65783203 119.08746826 -254.07323242 118.5089209 -254.5012207 117.9128418 C-257.24243164 114.04504832 -257.24243164 114.04504832 -257.24243164 112.91601562 C-248.00243164 112.91601562 -238.76243164 112.91601562 -229.24243164 112.91601562 C-229.24243164 108.95601562 -229.24243164 104.99601563 -229.24243164 100.91601562 C-227.43859925 69.59775319 -213.3927964 39.75447069 -192.24243164 16.91601562 C-191.49437256 16.10221436 -191.49437256 16.10221436 -190.73120117 15.27197266 C-141.64398537 -37.53279814 -56.91278983 -44.73989576 0 0 Z " fill="#FEFDFD" transform="translate(357.242431640625,143.083984375)"/>
<path d="M0 0 C4.00470881 2.08719993 6.07849384 4.24340415 7.96875 8.2734375 C8.23778175 10.87344048 8.34970873 13.22420714 8.30932617 15.81762695 C8.30998329 16.9306292 8.30998329 16.9306292 8.31065369 18.06611633 C8.30857191 20.50658943 8.2852705 22.9463664 8.26171875 25.38671875 C8.2561206 27.08350754 8.25185154 28.78030118 8.24885559 30.47709656 C8.23742399 34.93402593 8.20797143 39.39066008 8.17474365 43.84747314 C8.14400636 48.39892585 8.13034244 52.95042645 8.11523438 57.50195312 C8.08310002 66.42591066 8.03192413 75.34964949 7.96875 84.2734375 C8.83199387 84.26011383 8.83199387 84.26011383 9.712677 84.246521 C15.71492559 84.15786849 21.71698748 84.09762913 27.71972656 84.05371094 C29.95841021 84.03362434 32.19704158 84.0063497 34.43554688 83.97167969 C37.65768349 83.92303286 40.87912501 83.90043876 44.1015625 83.8828125 C45.09866241 83.86216736 46.09576233 83.84152222 47.12307739 83.82025146 C52.93616237 83.81838413 56.40072361 84.3006908 60.96875 88.2734375 C64.27969514 92.10716345 65.64767837 95.0975839 65.3515625 100.25 C64.64430701 103.98835046 63.26115908 106.19678321 60.96875 109.2734375 C56.61190056 111.94589069 53.30815548 112.6564828 48.23242188 112.69335938 C47.58769424 112.70182892 46.94296661 112.71029846 46.27870178 112.71902466 C44.16476276 112.74226876 42.05155669 112.74342012 39.9375 112.7421875 C38.45828973 112.74929549 36.9790822 112.75699542 35.49987793 112.76525879 C32.40657881 112.77867368 29.31353483 112.78028541 26.22021484 112.77441406 C22.26559265 112.76851301 18.31219607 112.79913819 14.35781097 112.83953094 C11.30533305 112.86543612 8.25314947 112.86828304 5.20057678 112.86463928 C3.74297499 112.86632715 2.28535912 112.87593771 0.8278656 112.89378357 C-11.96291924 113.03320347 -11.96291924 113.03320347 -15.84570312 110.04882812 C-20.15553701 104.57583979 -20.32892493 99.88751248 -20.32177734 93.17211914 C-20.32849457 92.26419113 -20.33521179 91.35626312 -20.34213257 90.42082214 C-20.36110192 87.42502341 -20.36503602 84.42944877 -20.3671875 81.43359375 C-20.37361538 79.34760954 -20.38034373 77.26162624 -20.38735962 75.17564392 C-20.39932916 70.8053071 -20.40304069 66.43504932 -20.40185547 62.06469727 C-20.40165212 56.46805556 -20.42897235 50.87192073 -20.46339989 45.27539921 C-20.48564801 40.96794817 -20.48969367 36.66061961 -20.48863602 32.35311699 C-20.49099442 30.28986296 -20.49983138 28.22660567 -20.51530075 26.16340828 C-20.53492133 23.27662846 -20.52913834 20.39094834 -20.51708984 17.50415039 C-20.52832886 16.65460785 -20.53956787 15.80506531 -20.55114746 14.92977905 C-20.49433 9.56598595 -19.57127688 6.54271884 -16.03125 2.2734375 C-11.44378976 -1.65867128 -5.5997399 -2.00298389 0 0 Z " fill="#FEFEFE" transform="translate(262.03125,171.7265625)"/>
</svg>
