<?xml version="1.0" encoding="UTF-8"?>
<svg version="1.1" xmlns="http://www.w3.org/2000/svg" width="512" height="512">
<path d="M0 0 C1.45108658 0.00273422 1.45108658 0.00273422 2.93148804 0.00552368 C17.26440977 0.05095174 31.21023917 0.55983928 45.3125 3.3125 C46.65803955 3.55395752 46.65803955 3.55395752 48.03076172 3.80029297 C107.84088904 14.62287989 165.35495829 48.68064457 202.3125 97.3125 C202.72918945 97.85277832 203.14587891 98.39305664 203.57519531 98.94970703 C211.2584873 108.9447116 218.00092968 119.40459036 224.3125 130.3125 C224.70679199 130.98974121 225.10108398 131.66698242 225.50732422 132.36474609 C238.68961173 155.2833756 247.29510918 180.85822563 252.625 206.6875 C252.77243652 207.39817627 252.91987305 208.10885254 253.07177734 208.84106445 C256.05713787 224.48358366 256.6873098 240.11919606 256.625 256 C256.62226578 257.45108658 256.62226578 257.45108658 256.61947632 258.93148804 C256.57404826 273.26440977 256.06516072 287.21023917 253.3125 301.3125 C253.15152832 302.20952637 252.99055664 303.10655273 252.82470703 304.03076172 C242.00212011 363.84088904 207.94435543 421.35495829 159.3125 458.3125 C158.77222168 458.72918945 158.23194336 459.14587891 157.67529297 459.57519531 C147.6802884 467.2584873 137.22040964 474.00092968 126.3125 480.3125 C125.63525879 480.70679199 124.95801758 481.10108398 124.26025391 481.50732422 C101.3416244 494.68961173 75.76677437 503.29510918 49.9375 508.625 C49.22682373 508.77243652 48.51614746 508.91987305 47.78393555 509.07177734 C32.91581614 511.90934438 18.03844593 512.66283959 2.93701172 512.62817383 C0.07871118 512.6250179 -2.77854516 512.64857578 -5.63671875 512.67382812 C-18.87029805 512.71920177 -31.63866546 511.48145966 -44.6875 509.3125 C-46.39413818 509.03031616 -46.39413818 509.03031616 -48.13525391 508.74243164 C-107.57972909 498.05619461 -165.01938976 463.56349705 -201.6875 415.3125 C-202.10418945 414.77222168 -202.52087891 414.23194336 -202.95019531 413.67529297 C-210.6334873 403.6802884 -217.37592968 393.22040964 -223.6875 382.3125 C-224.08179199 381.63525879 -224.47608398 380.95801758 -224.88232422 380.26025391 C-238.06461173 357.3416244 -246.67010918 331.76677437 -252 305.9375 C-252.14743652 305.22682373 -252.29487305 304.51614746 -252.44677734 303.78393555 C-255.43213787 288.14141634 -256.0623098 272.50580394 -256 256.625 C-255.99817719 255.65760895 -255.99635437 254.6902179 -255.99447632 253.69351196 C-255.94904826 239.36059023 -255.44016072 225.41476083 -252.6875 211.3125 C-252.44604248 209.96696045 -252.44604248 209.96696045 -252.19970703 208.59423828 C-241.37712011 148.78411096 -207.31935543 91.27004171 -158.6875 54.3125 C-158.14722168 53.89581055 -157.60694336 53.47912109 -157.05029297 53.04980469 C-147.0552884 45.3665127 -136.59540964 38.62407032 -125.6875 32.3125 C-125.01025879 31.91820801 -124.33301758 31.52391602 -123.63525391 31.11767578 C-100.7166244 17.93538827 -75.14177437 9.32989082 -49.3125 4 C-48.60182373 3.85256348 -47.89114746 3.70512695 -47.15893555 3.55322266 C-31.51641634 0.56786213 -15.88080394 -0.0623098 0 0 Z " fill="#FEA920" transform="translate(255.6875,-0.3125)"/>
<path d="M0 0 C27.99020049 -0.11291134 55.98021631 -0.2049985 83.97058678 -0.25906086 C96.96729059 -0.28483126 109.96384275 -0.31995989 122.96044922 -0.37719727 C134.28963277 -0.42706745 145.61870647 -0.45929947 156.94799674 -0.47044247 C162.9455962 -0.47695501 168.94288144 -0.49223774 174.9403801 -0.52865028 C180.58910721 -0.56266647 186.23739158 -0.5730414 191.8862114 -0.56553841 C193.95578418 -0.56691042 196.02537225 -0.57680903 198.09485626 -0.59602737 C219.84716846 -0.78806945 219.84716846 -0.78806945 228.11537743 6.98997021 C235.67907509 14.81479804 236.44185966 22.04327234 236.39440918 32.54328918 C236.40050028 33.80811573 236.40659139 35.07294228 236.41286707 36.3760969 C236.42923557 39.87553013 236.42695503 43.37473762 236.4214921 46.87419569 C236.41881805 50.65278665 236.43336077 54.43131794 236.44558716 58.20988464 C236.46662796 65.60847245 236.47118277 73.00698187 236.46939927 80.40559606 C236.4680909 86.42079958 236.47189965 92.43597867 236.47932434 98.4511776 C236.48142357 100.18482913 236.48352117 101.91848067 236.48561716 103.65213221 C236.48666069 104.51506425 236.48770422 105.37799628 236.48877937 106.26707777 C236.5076765 122.58288801 236.50663324 138.89865328 236.49981004 155.21446993 C236.4942357 170.13208296 236.51505626 185.0495242 236.54817051 199.96709708 C236.58192564 215.29260995 236.59707352 230.61804057 236.59245348 245.9435913 C236.59021054 254.54443111 236.59542621 263.14511217 236.62034607 271.74592018 C236.64138284 279.06876329 236.64492778 286.3913606 236.62604648 293.71421389 C236.61690291 297.44823235 236.61570252 301.18179281 236.63640213 304.9157753 C236.65862486 308.96945848 236.64186027 313.02206725 236.62145996 317.07575989 C236.63397781 318.24805061 236.64649566 319.42034133 236.65939283 320.62815601 C236.56875981 329.03821587 234.84316375 335.85355591 229.01024008 342.14678031 C222.3018009 348.51887809 215.9865292 350.45697152 206.95802307 350.36076355 C205.62598065 350.36460846 205.62598065 350.36460846 204.26702827 350.36853105 C201.30356415 350.37345637 198.34061413 350.35699661 195.37719727 350.34057617 C193.24811312 350.33972963 191.1190281 350.34020557 188.98994446 350.34190369 C183.21773889 350.342764 177.44572055 350.32513217 171.67355847 350.30418181 C165.63841531 350.28542118 159.6032678 350.28366505 153.56809998 350.28010559 C142.14310067 350.27078335 130.71818755 350.24616705 119.29322618 350.21605712 C106.28485914 350.18251878 93.27648798 350.16602851 80.26808846 350.15097082 C53.5120002 350.11961771 26.75603006 350.06460328 0 350 C0 319.64 0 289.28 0 258 C4.95 257.67 9.9 257.34 15 257 C20.98875774 253.39167258 20.98875774 253.39167258 24 248 C24.62140252 243.87802996 24.92187973 239.92649225 23.0859375 236.08984375 C20.06299209 232.12100897 17.94214784 231.64738261 13 230 C8.71 229.67 4.42 229.34 0 229 C0 193.03 0 157.06 0 120 C8.415 119.505 8.415 119.505 17 119 C22.56261567 114.73609774 22.56261567 114.73609774 24.37109375 108.6328125 C24.4867426 104.2653677 24.56264275 101.01363987 21.75 97.5 C14.67051715 91.0641065 11.14184834 92.74278989 0 92 C0 61.64 0 31.28 0 0 Z " fill="#FEFEFE" transform="translate(136,81)"/>
<path d="M0 0 C7.11978742 5.81219915 13.4953626 12.36973599 19.97192383 18.87426758 C21.2798162 20.18408122 22.58793798 21.49366581 23.89627075 22.80303955 C26.70229926 25.6122181 29.50676934 28.42293986 32.31003761 31.23487282 C36.74004415 35.6784346 41.173892 40.11815009 45.60832214 44.55729675 C55.01268235 53.97273699 64.41279694 63.39241076 73.8125 72.8125 C83.9779376 82.9999551 94.14410172 93.18667888 104.31513232 103.36855048 C108.72657957 107.78498962 113.13557506 112.20385774 117.54273093 116.62457907 C120.2770791 119.36636282 123.01347612 122.10609454 125.75044632 124.84526062 C127.02280359 126.11949671 128.29429279 127.39460024 129.56486702 128.67061424 C131.29343036 130.40634751 133.02501032 132.13901338 134.75740051 133.8709259 C135.26429612 134.38141647 135.77119172 134.89190703 136.29344779 135.417867 C138.89766005 138.03914709 138.89766005 138.03914709 142 140 C142.62849475 187.29181258 142.62849475 187.29181258 139 206 C138.83902832 206.89847656 138.67805664 207.79695312 138.51220703 208.72265625 C127.68808428 268.5308734 93.6305061 326.0434837 45 363 C44.45972168 363.41668945 43.91944336 363.83337891 43.36279297 364.26269531 C33.3677884 371.9459873 22.90790964 378.68842968 12 385 C11.32275879 385.39429199 10.64551758 385.78858398 9.94775391 386.19482422 C-12.9708756 399.37711173 -38.54572563 407.98260918 -64.375 413.3125 C-65.08567627 413.45993652 -65.79635254 413.60737305 -66.52856445 413.75927734 C-81.5030796 416.61714991 -96.44235759 417.32726907 -111.65014648 417.26074219 C-114.56319923 417.24999742 -117.47563733 417.26072216 -120.38867188 417.2734375 C-129.15879689 417.28122534 -137.86485596 417.117251 -146.58984375 416.171875 C-147.27244766 416.10276917 -147.95505157 416.03366333 -148.65834045 415.96246338 C-156.67730994 414.9586211 -161.00811597 410.27957616 -166.45239258 404.79052734 C-167.1846405 404.06017776 -167.91688843 403.32982819 -168.67132568 402.5773468 C-171.08397084 400.1683987 -173.48935396 397.75234001 -175.89453125 395.3359375 C-177.56853887 393.66073774 -179.24291635 391.98590751 -180.91764832 390.31143188 C-184.42175785 386.80575952 -187.92248471 383.29675569 -191.4206543 379.78515625 C-195.91616917 375.27260595 -200.41828499 370.76671262 -204.92270374 366.26305199 C-208.37751728 362.80796732 -211.82972457 359.35028877 -215.2810421 355.89171219 C-216.94112435 354.22843749 -218.60182204 352.56577683 -220.2631321 350.90372849 C-222.57614912 348.58855659 -224.88585096 346.27013043 -227.19458008 343.95068359 C-227.88803024 343.25768661 -228.58148041 342.56468964 -229.29594421 341.85069275 C-230.23169785 340.90854164 -230.23169785 340.90854164 -231.18635559 339.94735718 C-231.73293729 339.39909964 -232.27951899 338.85084209 -232.84266376 338.28597069 C-234 337 -234 337 -234 336 C-232.89601175 335.99945523 -231.79202351 335.99891047 -230.65458107 335.99834919 C-203.77943999 335.98394724 -176.90446076 335.94090343 -150.02941322 335.86790943 C-137.03277336 335.83327147 -124.03623943 335.80790545 -111.03955078 335.80444336 C-99.71028107 335.80140183 -88.38120009 335.78088567 -77.05200326 335.73947543 C-71.05446547 335.71816122 -65.05719589 335.7055369 -59.0596199 335.71384621 C-53.41079532 335.72139605 -47.76251375 335.70552475 -42.1137886 335.67193985 C-40.04425659 335.66371796 -37.97467046 335.66394314 -35.90514374 335.67340279 C-19.77871839 335.99982982 -19.77871839 335.99982982 -6.11899757 328.24476337 C1.00506913 320.83113003 1.43461082 313.27466665 1.36749268 303.42979431 C1.37076152 302.1621455 1.37403036 300.89449669 1.37739825 299.58843428 C1.38602462 296.08124916 1.3760012 292.57433003 1.36285591 289.06716812 C1.35193931 285.28049619 1.35837384 281.49384831 1.36264038 277.70716858 C1.36826963 270.29385768 1.35796691 262.88065035 1.34235242 255.46735709 C1.32480423 246.83386297 1.32339297 238.20038887 1.32273683 229.5668797 C1.32104926 214.16297231 1.30524004 198.75911205 1.28125 183.35522461 C1.25798851 168.40828053 1.24382461 153.46136633 1.24023438 138.5144043 C1.23990022 137.13329858 1.23990022 137.13329858 1.23955932 135.72429173 C1.23911672 133.86943991 1.2386747 132.01458808 1.23823325 130.15973625 C1.2379039 128.78725451 1.2379039 128.78725451 1.2375679 127.38704586 C1.23735192 126.47436654 1.23713593 125.56168721 1.2369134 124.62135094 C1.23321193 110.37601166 1.22185265 96.13067719 1.2094375 81.88534321 C1.20500384 76.72267936 1.2015649 71.56001596 1.19881538 66.39735096 C1.19438147 58.20881783 1.18660286 50.0203025 1.17204097 41.83178061 C1.16543827 38.09031817 1.16036874 34.34887139 1.15958023 30.6074028 C1.15864759 26.55265416 1.14995712 22.49795963 1.14044189 18.44322205 C1.14130838 17.25927996 1.14217486 16.07533788 1.1430676 14.85551876 C1.13922645 13.76803673 1.13538531 12.6805547 1.13142776 11.56011868 C1.13018127 10.62448509 1.12893477 9.6888515 1.1276505 8.72486538 C0.98850636 5.7546534 0.54164827 2.9214307 0 0 Z " fill="#FF8A00" transform="translate(370,95)"/>
<path d="M0 0 C100.91935484 0 100.91935484 0 109.9375 8.875 C116.20433512 16.2350668 116.43642193 23.2465542 116.39440918 32.54328918 C116.40354584 34.44052901 116.40354584 34.44052901 116.41286707 36.3760969 C116.42923557 39.87553013 116.42695503 43.37473762 116.4214921 46.87419569 C116.41881805 50.65278665 116.43336077 54.43131794 116.44558716 58.20988464 C116.46662796 65.60847245 116.47118277 73.00698187 116.46939927 80.40559606 C116.4680909 86.42079958 116.47189965 92.43597867 116.47932434 98.4511776 C116.48142357 100.18482913 116.48352117 101.91848067 116.48561716 103.65213221 C116.48666069 104.51506425 116.48770422 105.37799628 116.48877937 106.26707777 C116.5076765 122.58288801 116.50663324 138.89865328 116.49981004 155.21446993 C116.4942357 170.13208296 116.51505626 185.0495242 116.54817051 199.96709708 C116.58192564 215.29260995 116.59707352 230.61804057 116.59245348 245.9435913 C116.59021054 254.54443111 116.59542621 263.14511217 116.62034607 271.74592018 C116.64138284 279.06876329 116.64492778 286.3913606 116.62604648 293.71421389 C116.61690291 297.44823235 116.61570252 301.18179281 116.63640213 304.9157753 C116.65862486 308.96945848 116.64186027 313.02206725 116.62145996 317.07575989 C116.63397781 318.24805061 116.64649566 319.42034133 116.65939283 320.62815601 C116.56875981 329.03821587 114.84316375 335.85355591 109.01024008 342.14678031 C102.08957162 348.72046681 95.68388621 350.4554316 86.39282227 350.34057617 C85.45545731 350.34101425 84.51809235 350.34145233 83.55232239 350.34190369 C80.47346713 350.33982419 77.39516564 350.3165326 74.31640625 350.29296875 C72.1740702 350.28736982 70.03173031 350.28310112 67.88938904 350.28010559 C62.26528216 350.26868027 56.64140964 350.23923286 51.01739502 350.20599365 C44.26172987 350.16983136 37.50598612 350.15612062 30.75025177 350.13863373 C20.50000511 350.10959431 10.25027217 350.0520906 0 350 C0 334.16 0 318.32 0 302 C20.46 302 40.92 302 62 302 C62 297.38 62 292.76 62 288 C41.54 288 21.08 288 0 288 C0 282.39 0 276.78 0 271 C20.46 271 40.92 271 62 271 C62 266.38 62 261.76 62 257 C41.54 257 21.08 257 0 257 C0 251.72 0 246.44 0 241 C20.13 240.67 40.26 240.34 61 240 C61.33 235.38 61.66 230.76 62 226 C41.54 226 21.08 226 0 226 C0 151.42 0 76.84 0 0 Z " fill="#FEF4C9" transform="translate(256,81)"/>
<path d="M0 0 C7.78951623 4.0634841 12.3745624 8.95228405 15.125 17.3125 C15.74706817 22.40615532 15.84659672 27.40014121 15.77685547 32.52612305 C15.74999807 34.87516915 15.77672261 37.21945663 15.80859375 39.56835938 C15.83070018 48.91312525 15.06677512 56.24832595 8.28173828 63.20141602 C5.16334487 66.12363671 3.38948221 67.24637945 -0.875 68.3125 C-0.875 96.6925 -0.875 125.0725 -0.875 154.3125 C-7.145 154.3125 -13.415 154.3125 -19.875 154.3125 C-19.875 125.9325 -19.875 97.5525 -19.875 68.3125 C-21.195 67.9825 -22.515 67.6525 -23.875 67.3125 C-30.21854325 63.14954974 -33.34363945 58.33452278 -35.875 51.3125 C-36.205 50.6525 -36.535 49.9925 -36.875 49.3125 C-37.13411885 45.15766321 -37.14615198 41.00089227 -37.17016602 36.83862305 C-37.18161886 35.45863537 -37.20196342 34.07868962 -37.23168945 32.69897461 C-37.46813132 21.72093904 -36.37072335 13.1269758 -28.6875 4.88671875 C-20.45053088 -2.26737296 -10.1679138 -4.1696991 0 0 Z " fill="#FF3201" transform="translate(233.875,130.6875)"/>
<path d="M0 0 C3.63 0 7.26 0 11 0 C11.33 13.53 11.66 27.06 12 41 C14.64 41 17.28 41 20 41 C20.33 27.47 20.66 13.94 21 0 C24.63 0 28.26 0 32 0 C32.02505615 1.17095215 32.0501123 2.3419043 32.07592773 3.54833984 C32.16993703 7.88325378 32.27017341 12.21800504 32.37231445 16.55273438 C32.41568789 18.43062542 32.45736118 20.30855652 32.49731445 22.18652344 C32.55495876 24.8822844 32.61866981 27.57784327 32.68359375 30.2734375 C32.70030624 31.11619232 32.71701874 31.95894714 32.73423767 32.82723999 C32.73236144 37.0486661 32.73236144 37.0486661 34 41 C36.31 41 38.62 41 41 41 C41.33 27.47 41.66 13.94 42 0 C45.63 0 49.26 0 53 0 C53.07455095 6.79522342 53.12879144 13.59020499 53.16479492 20.38574219 C53.17981541 22.69405265 53.20023779 25.00233488 53.22631836 27.31054688 C53.26299885 30.64199825 53.27979431 33.97306995 53.29296875 37.3046875 C53.30845261 38.32488983 53.32393646 39.34509216 53.33988953 40.39620972 C53.34188182 49.01505924 52.27791544 57.46511638 46.1875 64 C45.21876953 65.0828125 45.21876953 65.0828125 44.23046875 66.1875 C42 68 42 68 36 70 C36 98.71 36 127.42 36 157 C29.73 157 23.46 157 17 157 C17 128.29 17 99.58 17 70 C15.68 69.67 14.36 69.34 13 69 C6.65645675 64.83704974 3.53136055 60.02202278 1 53 C0.67 52.34 0.34 51.68 0 51 C-0.0902835 49.36582405 -0.11755658 47.72797163 -0.11352539 46.09130859 C-0.11344986 45.07040131 -0.11337433 44.04949402 -0.11329651 42.99765015 C-0.10813522 41.89240997 -0.10297394 40.7871698 -0.09765625 39.6484375 C-0.0962413 38.5192691 -0.09482635 37.39010071 -0.09336853 36.22671509 C-0.08775744 32.60945012 -0.07520303 28.99224636 -0.0625 25.375 C-0.05748643 22.92708423 -0.05292328 20.47916748 -0.04882812 18.03125 C-0.03778439 12.02080964 -0.02051229 6.01041521 0 0 Z " fill="#BB1302" transform="translate(262,129)"/>
<path d="M0 0 C40.92 0 81.84 0 124 0 C124 4.62 124 9.24 124 14 C122.36590621 15.63409379 120.52568181 15.12738878 118.27075195 15.12939453 C116.73585617 15.13406235 116.73585617 15.13406235 115.16995239 15.13882446 C113.47127518 15.13584854 113.47127518 15.13584854 111.73828125 15.1328125 C110.55249481 15.13413177 109.36670837 15.13545105 108.14498901 15.1368103 C104.88193536 15.13841605 101.61893867 15.13499068 98.35589218 15.12857056 C96.31934212 15.12501196 94.28279912 15.12338296 92.24624634 15.12231445 C61.49215284 15.10235072 30.74761536 14.59756569 0 14 C0 9.38 0 4.76 0 0 Z " fill="#0BAAFE" transform="translate(194,307)"/>
<path d="M0 0 C40.92 0 81.84 0 124 0 C124 4.62 124 9.24 124 14 C83.08 14 42.16 14 0 14 C0 9.38 0 4.76 0 0 Z " fill="#0AA9FE" transform="translate(194,369)"/>
<path d="M0 0 C40.92 0 81.84 0 124 0 C124 4.62 124 9.24 124 14 C83.08 14 42.16 14 0 14 C0 9.38 0 4.76 0 0 Z " fill="#0BAAFE" transform="translate(194,338)"/>
<path d="M0 0 C1.13758003 -0.01354271 1.13758003 -0.01354271 2.29814148 -0.02735901 C3.90274105 -0.0418598 5.50739972 -0.05074784 7.11206055 -0.05444336 C9.55555195 -0.06631555 11.99649659 -0.1154751 14.43945312 -0.16601562 C16.00128981 -0.17548337 17.56314195 -0.18271673 19.125 -0.1875 C20.2128051 -0.21679848 20.2128051 -0.21679848 21.32258606 -0.24668884 C27.09660227 -0.19587302 29.36442115 1.41997512 33.26171875 5.37109375 C36.104059 9.63460412 35.88624121 13.36710753 35.26171875 18.37109375 C32.89038876 23.29616372 29.96955891 25.6986806 25.26171875 28.37109375 C21.84594727 28.90454102 21.84594727 28.90454102 18.140625 28.9375 C17.47763901 28.94369858 16.81465302 28.94989716 16.13157654 28.95628357 C14.73739072 28.96334764 13.34311995 28.9602675 11.94897461 28.94750977 C9.83221974 28.93364615 7.71989773 28.9677463 5.60351562 29.00585938 C-5.6661059 29.07029527 -5.6661059 29.07029527 -10.0859375 26.0234375 C-14.18817863 21.92119637 -15.04798477 19.70300585 -15.11328125 13.99609375 C-15.14164062 12.87460937 -15.17 11.753125 -15.19921875 10.59765625 C-14.64394535 6.71074247 -13.45733077 5.14903965 -10.73828125 2.37109375 C-7.07328038 -0.07224016 -4.24547829 0.03113357 0 0 Z " fill="#044FB4" transform="translate(125.73828125,310.62890625)"/>
<path d="M0 0 C2.13599116 0.00850799 4.26930205 -0.02027227 6.4050293 -0.05200195 C7.77547121 -0.05361444 9.14591781 -0.05303553 10.51635742 -0.05004883 C11.75184326 -0.05190186 12.9873291 -0.05375488 14.26025391 -0.05566406 C19.3359488 0.68299135 22.33873988 3.2211289 26.08276367 6.57104492 C28.49000028 10.830002 28.47395345 14.66502073 27.70776367 19.44604492 C25.68200166 23.42522031 23.56619009 26.20294145 19.70776367 28.44604492 C17.00496368 28.75044329 14.53836455 28.89051447 11.83666992 28.87963867 C10.6976548 28.88750145 10.6976548 28.88750145 9.53562927 28.89552307 C7.93278219 28.90193409 6.329888 28.90061814 4.72705078 28.89208984 C2.28161341 28.8835844 -0.16148301 28.91234226 -2.60668945 28.9440918 C-4.16723563 28.94570417 -5.72778593 28.94512559 -7.28833008 28.94213867 C-8.37917152 28.95898964 -8.37917152 28.95898964 -9.49205017 28.97618103 C-14.38033367 28.90947428 -16.84862667 27.89975789 -20.29223633 24.44604492 C-23.50715661 19.76005505 -22.89497988 13.87817816 -22.29223633 8.44604492 C-17.35699234 -0.51050899 -9.08388481 -0.05528142 0 0 Z " fill="#044FB5" transform="translate(133.292236328125,172.553955078125)"/>
<path d="M0 0 C20.13 0 40.26 0 61 0 C61 4.62 61 9.24 61 14 C40.87 14 20.74 14 0 14 C0 9.38 0 4.76 0 0 Z " fill="#088DFD" transform="translate(256,308)"/>
<path d="M0 0 C20.13 0 40.26 0 61 0 C61 4.29 61 8.58 61 13 C40.87 13 20.74 13 0 13 C0 8.71 0 4.42 0 0 Z " fill="#0089FF" transform="translate(256,370)"/>
<path d="M0 0 C20.13 0 40.26 0 61 0 C61 4.29 61 8.58 61 13 C40.87 13 20.74 13 0 13 C0 8.71 0 4.42 0 0 Z " fill="#0089FF" transform="translate(256,339)"/>
<path d="M0 0 C5.61 0.33 11.22 0.66 17 1 C17 6.28 17 11.56 17 17 C10.98173262 12.02838782 5.33662648 6.70170757 0 1 C0 0.67 0 0.34 0 0 Z " fill="#FE8A00" transform="translate(118,201)"/>
<path d="M0 0 C5.61 0.33 11.22 0.66 17 1 C17 6.28 17 11.56 17 17 C10.98173262 12.02838782 5.33662648 6.70170757 0 1 C0 0.67 0 0.34 0 0 Z " fill="#FE8A00" transform="translate(118,338)"/>
</svg>
