<?xml version="1.0" encoding="UTF-8"?>
<svg version="1.1" xmlns="http://www.w3.org/2000/svg" width="512" height="512">
<path d="M0 0 C0.92320038 0.00215515 1.84640076 0.0043103 2.7975769 0.00653076 C16.84510478 0.05906873 30.56720523 0.50878372 44.375 3.3125 C45.83800537 3.60253906 45.83800537 3.60253906 47.33056641 3.8984375 C89.5561911 12.53140952 129.50688243 31.53522623 161.04296875 61.1328125 C163.06200592 63.01995277 165.12693267 64.79547502 167.25 66.5625 C206.07006128 100.55970234 230.81301775 152.8848317 238.375 203.3125 C238.55160156 204.45960449 238.72820312 205.60670898 238.91015625 206.78857422 C240.44871324 217.72469227 240.77475956 228.52761304 240.75 239.5625 C240.74918427 240.93796494 240.74918427 240.93796494 240.74835205 242.34121704 C240.5877667 301.53618966 218.85896845 358.85292072 178.375 402.3125 C177.16161781 403.70394666 175.95302197 405.09958639 174.75 406.5 C169.06159978 412.99360756 162.98521623 418.58778833 156.25 423.99609375 C154.3990034 425.48745378 152.56409151 426.99911746 150.75 428.53515625 C138.0583391 439.24374514 124.03942695 447.60569543 109.375 455.3125 C108.7243457 455.66022461 108.07369141 456.00794922 107.40332031 456.36621094 C86.25281067 467.53533633 61.92342921 474.61739056 38.375 478.3125 C37.21726074 478.49578857 36.05952148 478.67907715 34.86669922 478.86791992 C23.65562357 480.46272693 12.56157171 480.67004046 1.25 480.625 C-0.17498306 480.62226578 -0.17498306 480.62226578 -1.62875366 480.61947632 C-15.50753264 480.57462831 -28.99245636 480.1175616 -42.625 477.3125 C-43.47545898 477.15152832 -44.32591797 476.99055664 -45.20214844 476.82470703 C-88.98845263 468.47338005 -129.01269578 448.65091878 -161.625 418.3125 C-162.9959163 417.12028787 -164.37076624 415.93258001 -165.75 414.75 C-173.54691563 407.92183942 -180.21925423 400.4483848 -186.625 392.3125 C-187.12725098 391.68134277 -187.62950195 391.05018555 -188.14697266 390.39990234 C-195.78330791 380.77807396 -202.6872176 371.06801154 -208.625 360.3125 C-209.06054199 359.53422852 -209.49608398 358.75595703 -209.94482422 357.95410156 C-240.5055373 302.99402322 -248.85797822 237.03350672 -232.08203125 176.24609375 C-218.21567823 128.49702365 -191.18372946 84.09148623 -151.625 53.3125 C-150.99964355 52.8160498 -150.37428711 52.31959961 -149.72998047 51.80810547 C-140.09964627 44.16312292 -130.3836999 37.2669056 -119.625 31.3125 C-118.86268066 30.88227539 -118.10036133 30.45205078 -117.31494141 30.00878906 C-95.52969478 17.78197668 -72.08462351 9.1700919 -47.625 4.125 C-46.87895508 3.96990967 -46.13291016 3.81481934 -45.36425781 3.6550293 C-30.2747702 0.71811693 -15.33595828 -0.06464961 0 0 Z " fill="#46CB6B" transform="translate(255.625,15.6875)"/>
<path d="M0 0 C1.28997894 0.00848969 1.28997894 0.00848969 2.60601807 0.01715088 C5.34729149 0.03950549 8.08724804 0.08969898 10.828125 0.140625 C12.68878318 0.16069124 14.54946189 0.17894179 16.41015625 0.1953125 C20.96665166 0.23936716 25.52216522 0.30838746 30.078125 0.390625 C30.107854 1.32128784 30.107854 1.32128784 30.13818359 2.27075195 C30.23344345 5.08197037 30.34311802 7.89244666 30.453125 10.703125 C30.4840625 11.67958984 30.515 12.65605469 30.546875 13.66210938 C30.60488281 15.06879883 30.60488281 15.06879883 30.6640625 16.50390625 C30.6954834 17.36798096 30.7269043 18.23205566 30.75927734 19.12231445 C30.95000537 21.66804945 30.95000537 21.66804945 33.078125 24.390625 C36.578125 24.80729167 36.578125 24.80729167 40.078125 24.390625 C45.77900213 18.68974787 42.71203673 8.44456685 43.078125 0.390625 C64.528125 0.390625 85.978125 0.390625 108.078125 0.390625 C108.408125 8.310625 108.738125 16.230625 109.078125 24.390625 C112.048125 24.390625 115.018125 24.390625 118.078125 24.390625 C119.30872921 21.92941659 119.2838973 20.13285634 119.39453125 17.3828125 C119.43642578 16.39667969 119.47832031 15.41054687 119.52148438 14.39453125 C119.56080078 13.36199219 119.60011719 12.32945312 119.640625 11.265625 C119.70540039 9.70521484 119.70540039 9.70521484 119.77148438 8.11328125 C119.8777538 5.53919972 119.97979083 2.96501992 120.078125 0.390625 C125.52244756 0.34104101 130.96663749 0.30481834 136.41113281 0.28076172 C138.26174206 0.27072869 140.11233555 0.25709914 141.96289062 0.23974609 C144.6289459 0.21537892 147.29479084 0.20411477 149.9609375 0.1953125 C151.19410202 0.17982864 151.19410202 0.17982864 152.45217896 0.16403198 C157.029602 0.16314588 160.93845703 0.24290351 165.078125 2.390625 C166.04181558 3.4131919 166.95913621 4.47988585 167.84907532 5.56724548 C173.72121984 12.42196901 180.22751155 18.6792556 186.6105957 25.05249023 C188.08640374 26.52965483 189.56199929 28.00703174 191.03739929 29.48460388 C195.02639545 33.47814162 199.01852724 37.46853074 203.0113833 41.4582088 C207.19196549 45.63625331 211.37010067 49.81674377 215.54862976 53.99684143 C222.55837323 61.00840126 229.57021637 68.01785613 236.58325195 75.02612305 C244.69853164 83.1359484 252.81018539 91.24938714 260.91998988 99.36468738 C267.88472082 106.33394945 274.85138996 113.30126953 281.81969708 120.26695591 C285.98124685 124.42694454 290.14211288 128.587611 294.30123329 132.75002861 C298.20515219 136.65682663 302.11149094 140.56118853 306.01974678 144.46364784 C307.45657491 145.89914915 308.89254429 147.33551057 310.32761002 148.77277374 C312.27949222 150.72737011 314.23439856 152.67888946 316.19013977 154.62962341 C316.76318149 155.20489586 317.33622322 155.7801683 317.92662984 156.37287325 C320.7352597 159.23484047 320.7352597 159.23484047 324.078125 161.390625 C315.41163253 189.48376457 297.97685672 215.02931726 278.078125 236.390625 C276.86474281 237.78207166 275.65614697 239.17771139 274.453125 240.578125 C268.76472478 247.07173256 262.68834123 252.66591333 255.953125 258.07421875 C254.1021284 259.56557878 252.26721651 261.07724246 250.453125 262.61328125 C237.7614641 273.32187014 223.74255195 281.68382043 209.078125 289.390625 C208.4274707 289.73834961 207.77681641 290.08607422 207.10644531 290.44433594 C181.43173813 304.00259192 150.95235608 312.19224604 122.078125 314.390625 C120.81051425 314.49946864 119.5429035 314.60831228 118.2368803 314.72045422 C114.40864622 314.69284579 112.39840054 313.64952554 109.58776075 310.93291122 C109.09697795 310.41882569 108.60619516 309.90474017 108.10054016 309.37507629 C107.55412013 308.83549166 107.00770009 308.29590702 106.44472188 307.73997134 C104.62370194 305.93209937 102.83270389 304.09718353 101.0402832 302.26098633 C99.73860665 300.95705243 98.43516443 299.6548791 97.13009644 298.3543396 C93.59361551 294.82015452 90.08235139 291.26183799 86.57506204 287.69871354 C82.89888314 283.97248206 79.19999635 280.26893288 75.50346375 276.56291199 C68.50242492 269.53700155 61.52202045 262.49095518 54.54879683 255.43744916 C46.62921282 247.42865306 38.68709736 239.44236579 30.74290335 231.4579922 C17.16152971 217.80713896 3.59717718 204.13956352 -9.94828796 190.45307922 C-10.52094243 189.874508 -11.0935969 189.29593678 -11.68360454 188.6998331 C-12.73345488 187.63904409 -13.7831793 186.57813044 -14.83274096 185.51705581 C-17.10757245 183.2182594 -19.38886772 180.92710824 -21.68426228 178.64879894 C-25.42695115 174.87171884 -27.92327459 171.25247184 -27.92059326 165.76976013 C-27.82401428 164.78540482 -27.7274353 163.8010495 -27.62792969 162.78686523 C-27.52121948 161.63217743 -27.41450928 160.47748962 -27.30456543 159.28781128 C-27.17827759 158.00173981 -27.05198975 156.71566833 -26.921875 155.390625 C-26.7960194 153.98129596 -26.67210805 152.57179223 -26.54992676 151.16213989 C-26.12744033 146.29069973 -25.68898388 141.42075854 -25.25 136.55078125 C-25.08549945 134.71939595 -24.92105687 132.88800544 -24.75666809 131.05661011 C-24.31962897 126.19082969 -23.88142196 121.3251552 -23.44282913 116.45951462 C-23.17131527 113.44691449 -22.90006199 110.43429101 -22.62887573 107.42166138 C-20.43515132 83.05521899 -18.23294213 58.68957465 -15.984375 34.328125 C-15.88314331 33.2272757 -15.78191162 32.12642639 -15.6776123 30.99221802 C-15.3972069 27.94649806 -15.11498855 24.90095256 -14.83203125 21.85546875 C-14.7532222 20.99815155 -14.67441315 20.14083435 -14.59321594 19.25753784 C-14.44717466 17.69609928 -14.29479313 16.13523512 -14.13479614 14.57516479 C-13.9919065 13.10913793 -13.87525451 11.64033513 -13.78390503 10.17019653 C-13.52965694 6.97751123 -13.08996042 4.66713152 -11.41699219 1.91503906 C-7.66657659 -0.37631074 -4.31137389 -0.10692633 0 0 Z " fill="#179C5F" transform="translate(155.921875,181.609375)"/>
<path d="M0 0 C1.28997894 0.00848969 1.28997894 0.00848969 2.60601807 0.01715088 C5.34729149 0.03950549 8.08724804 0.08969898 10.828125 0.140625 C12.68878318 0.16069124 14.54946189 0.17894179 16.41015625 0.1953125 C20.96665166 0.23936716 25.52216522 0.30838746 30.078125 0.390625 C30.107854 1.32128784 30.107854 1.32128784 30.13818359 2.27075195 C30.23344345 5.08197037 30.34311802 7.89244666 30.453125 10.703125 C30.4840625 11.67958984 30.515 12.65605469 30.546875 13.66210938 C30.60488281 15.06879883 30.60488281 15.06879883 30.6640625 16.50390625 C30.6954834 17.36798096 30.7269043 18.23205566 30.75927734 19.12231445 C30.95000537 21.66804945 30.95000537 21.66804945 33.078125 24.390625 C36.578125 24.80729167 36.578125 24.80729167 40.078125 24.390625 C45.77900213 18.68974787 42.71203673 8.44456685 43.078125 0.390625 C64.528125 0.390625 85.978125 0.390625 108.078125 0.390625 C108.408125 8.310625 108.738125 16.230625 109.078125 24.390625 C112.048125 24.390625 115.018125 24.390625 118.078125 24.390625 C119.30872921 21.92941659 119.2838973 20.13285634 119.39453125 17.3828125 C119.43642578 16.39667969 119.47832031 15.41054687 119.52148438 14.39453125 C119.56080078 13.36199219 119.60011719 12.32945312 119.640625 11.265625 C119.70540039 9.70521484 119.70540039 9.70521484 119.77148438 8.11328125 C119.8777538 5.53919972 119.97979083 2.96501992 120.078125 0.390625 C125.54071793 0.29157526 131.00278549 0.21907125 136.46606445 0.17089844 C138.32357898 0.15081195 140.18103051 0.12353722 142.03833008 0.08886719 C144.71190963 0.04021763 147.38465156 0.01762691 150.05859375 0 C150.88586472 -0.02064514 151.71313568 -0.04129028 152.56547546 -0.06256104 C156.25286738 -0.06398851 158.66665223 0.1987872 162.04516602 1.77392578 C165.14673363 5.76607202 165.21649904 9.70719228 165.625 14.6484375 C165.72653381 15.66549774 165.82806763 16.68255798 165.93267822 17.73043823 C166.25244417 20.99052525 166.54025215 24.2525838 166.828125 27.515625 C167.03576148 29.65774678 167.2453773 31.79967769 167.45703125 33.94140625 C168.63229091 46.07760423 169.52281151 58.21061969 170.078125 70.390625 C169.49278992 70.40527298 168.90745483 70.41992096 168.30438232 70.43501282 C145.44423211 71.03353279 125.42258723 75.47381553 108.078125 91.390625 C107.31113281 92.06609375 106.54414063 92.7415625 105.75390625 93.4375 C93.75510433 104.60107123 84.17794642 122.11951252 82.80688477 138.66357422 C82.71309174 142.11923776 82.71740372 145.55912363 82.765625 149.015625 C82.76079102 150.75972656 82.76079102 150.75972656 82.75585938 152.5390625 C82.79123411 158.22474761 83.03241732 163.54756312 84.4896698 169.05581665 C85.12529296 171.57777287 85.64520711 174.10690759 86.1472168 176.65869141 C86.32286667 177.54811432 86.49851654 178.43753723 86.67948914 179.35391235 C86.87681389 180.36208511 86.87681389 180.36208511 87.078125 181.390625 C73.78685258 181.50658496 60.49570094 181.59537448 47.20402527 181.64968586 C41.03183089 181.6757555 34.85998317 181.71110658 28.68798828 181.76782227 C22.72925418 181.82223426 16.77085306 181.85206534 10.81188965 181.86501122 C8.54092163 181.87423447 6.26997139 181.89224547 3.99914551 181.91927528 C0.81283493 181.95568645 -2.37210788 181.96056513 -5.55859375 181.95825195 C-6.49295761 181.97622833 -7.42732147 181.99420471 -8.38999939 182.01272583 C-14.70708841 181.9632538 -19.09362303 180.56862443 -23.921875 176.390625 C-27.49341881 171.97692164 -28.15493657 168.40420346 -27.61621094 162.78686523 C-27.51119263 161.63217743 -27.40617432 160.47748962 -27.29797363 159.28781128 C-27.17386108 158.00173981 -27.04974854 156.71566833 -26.921875 155.390625 C-26.79657713 153.98126772 -26.67289805 152.57176579 -26.55065918 151.16213989 C-26.12747952 146.29074213 -25.68898549 141.42077637 -25.25 136.55078125 C-25.08549945 134.71939595 -24.92105687 132.88800544 -24.75666809 131.05661011 C-24.31962897 126.19082969 -23.88142196 121.3251552 -23.44282913 116.45951462 C-23.17131527 113.44691449 -22.90006199 110.43429101 -22.62887573 107.42166138 C-20.43515132 83.05521899 -18.23294213 58.68957465 -15.984375 34.328125 C-15.88314331 33.2272757 -15.78191162 32.12642639 -15.6776123 30.99221802 C-15.3972069 27.94649806 -15.11498855 24.90095256 -14.83203125 21.85546875 C-14.7532222 20.99815155 -14.67441315 20.14083435 -14.59321594 19.25753784 C-14.44717466 17.69609928 -14.29479313 16.13523512 -14.13479614 14.57516479 C-13.9919065 13.10913793 -13.87525451 11.64033513 -13.78390503 10.17019653 C-13.52965694 6.97751123 -13.08996042 4.66713152 -11.41699219 1.91503906 C-7.66657659 -0.37631074 -4.31137389 -0.10692633 0 0 Z " fill="#FEFEFE" transform="translate(155.921875,181.609375)"/>
<path d="M0 0 C13.26459881 10.76347159 22.27915438 26.5339467 25.00390625 43.4375 C26.41329675 63.70037655 21.02288087 82.35591753 7.5078125 97.90625 C-5.93304838 111.49389095 -22.90011941 118.62179398 -41.87109375 118.875 C-60.45370445 118.74876414 -75.97048359 111.61977558 -88.99609375 98.4375 C-89.70507812 97.75042969 -90.4140625 97.06335938 -91.14453125 96.35546875 C-102.20826688 84.93141989 -108.04243974 68.61894885 -108.43359375 52.875 C-107.77383636 33.64207239 -100.46380967 16.44942435 -86.5390625 3.078125 C-61.86856473 -18.44986427 -26.19660053 -19.65244137 0 0 Z " fill="#FDFEFD" transform="translate(358.99609375,279.5625)"/>
<path d="M0 0 C6.27553687 5.01533778 10.64388451 11.67572582 12.8125 19.375 C13.03955078 22.71826172 13.03955078 22.71826172 13.0078125 26.3046875 C13.00136719 27.59375 12.99492187 28.8828125 12.98828125 30.2109375 C12.97157463 31.55729442 12.95464479 32.90364859 12.9375 34.25 C12.92745664 35.61978517 12.91833317 36.98957742 12.91015625 38.359375 C12.88664412 41.69809756 12.8537793 45.03645761 12.8125 48.375 C16.7725 48.375 20.7325 48.375 24.8125 48.375 C24.76791303 44.00009596 24.69763968 39.62652951 24.60498047 35.25244141 C24.57699994 33.76883042 24.55567306 32.2850767 24.54150391 30.80126953 C24.46018146 22.76118999 24.27957039 15.61561513 20.56347656 8.27099609 C19.8125 6.375 19.8125 6.375 20.8125 3.375 C26.68269586 9.2220737 32.55022205 15.07180762 38.41431427 20.9250021 C41.1370322 23.64249092 43.86067687 26.35903744 46.58642578 29.07348633 C49.21456218 31.69079484 51.84028177 34.31050515 54.46430969 36.93193245 C55.46822057 37.9339889 56.47301427 38.93516165 57.47868347 39.93545341 C58.88197046 41.33153134 60.28189485 42.73098681 61.68164062 44.13061523 C62.88077087 45.32641457 62.88077087 45.32641457 64.10412598 46.54637146 C65.8125 48.375 65.8125 48.375 65.8125 49.375 C52.2825 49.375 38.7525 49.375 24.8125 49.375 C24.89150998 56.48025652 24.89150998 56.48025652 24.99267578 63.58520508 C24.9976709 64.47103271 25.00266602 65.35686035 25.0078125 66.26953125 C25.01828613 67.17550049 25.02875977 68.08146973 25.03955078 69.01489258 C24.8125 71.375 24.8125 71.375 22.8125 74.375 C19.375 74.75 19.375 74.75 15.8125 74.375 C14.8225 73.385 13.8325 72.395 12.8125 71.375 C12.8125 64.115 12.8125 56.855 12.8125 49.375 C-8.6375 49.375 -30.0875 49.375 -52.1875 49.375 C-52.1875 56.635 -52.1875 63.895 -52.1875 71.375 C-55.1875 74.375 -55.1875 74.375 -58.75 74.6875 C-62.1875 74.375 -62.1875 74.375 -64.1875 72.375 C-64.41455078 69.94482422 -64.41455078 69.94482422 -64.3828125 66.9296875 C-64.37636719 65.85332031 -64.36992187 64.77695313 -64.36328125 63.66796875 C-64.34652344 62.54003906 -64.32976562 61.41210938 -64.3125 60.25 C-64.30347656 59.11433594 -64.29445312 57.97867188 -64.28515625 56.80859375 C-64.26153199 53.99730663 -64.2256601 51.18612738 -64.1875 48.375 C-60.2275 48.375 -56.2675 48.375 -52.1875 48.375 C-52.23390625 46.39757812 -52.2803125 44.42015625 -52.328125 42.3828125 C-52.35597534 40.43328885 -52.38366953 38.48375994 -52.40722656 36.53417969 C-52.43685477 34.54335522 -52.48772326 32.55288292 -52.5390625 30.5625 C-52.65749681 18.83750297 -50.4830179 10.8990984 -42.328125 2.3515625 C-29.83241681 -9.18644542 -13.89777833 -9.42585351 0 0 Z " fill="#189C5F" transform="translate(251.1875,132.625)"/>
<path d="M0 0 C9.10440537 7.04522976 14.39322674 16.17968021 18 27 C18.0845387 29.4410776 18.11605786 31.85259213 18.09765625 34.29296875 C18.0962413 34.99899734 18.09482635 35.70502594 18.09336853 36.43244934 C18.08777764 38.68417626 18.07522688 40.93580321 18.0625 43.1875 C18.05748382 44.71549335 18.05292112 46.24348827 18.04882812 47.77148438 C18.0378112 51.51436135 18.02055287 55.25716373 18 59 C14.04 59 10.08 59 6 59 C5.9906543 58.16863525 5.98130859 57.33727051 5.97167969 56.48071289 C5.92729941 53.35473157 5.86552396 50.22968104 5.79248047 47.10424805 C5.75084123 45.10293229 5.7287345 43.1012406 5.70703125 41.09960938 C5.51617704 33.52269717 4.88198408 27.57811445 1 21 C0.33097656 19.80310547 0.33097656 19.80310547 -0.3515625 18.58203125 C-5.25159817 11.77308598 -12.72258562 6.72446133 -21 5 C-30.14505858 4.12066744 -38.23782917 5.70164049 -45.75 11.125 C-52.66059502 16.91032999 -57.45131689 24.24680969 -58.31884766 33.34326172 C-58.35026855 34.52678223 -58.38168945 35.71030273 -58.4140625 36.9296875 C-58.47207031 38.86328125 -58.47207031 38.86328125 -58.53125 40.8359375 C-58.56269758 42.18228707 -58.59394511 43.52864132 -58.625 44.875 C-58.66323041 46.24481514 -58.70228501 47.61460755 -58.7421875 48.984375 C-58.83622715 52.32278263 -58.92188057 55.66118814 -59 59 C-62.96 59 -66.92 59 -71 59 C-71.12528251 54.66252686 -71.21511224 50.32606142 -71.2746582 45.98730469 C-71.29952584 44.5170656 -71.33343362 43.04694642 -71.37719727 41.57714844 C-71.73563762 29.21306464 -69.60428133 19.05727531 -62 9 C-61.195625 7.7934375 -61.195625 7.7934375 -60.375 6.5625 C-44.00463518 -11.10026204 -19.77740934 -12.24923417 0 0 Z " fill="#FBFDFC" transform="translate(258,122)"/>
<path d="M0 0 C3.1875 0.3125 3.1875 0.3125 5.5625 1.9375 C7.68002721 5.03234746 7.62212425 6.61161731 7.1875 10.3125 C5.38671875 12.81030273 5.38671875 12.81030273 2.875 15.24609375 C1.96363281 16.14263672 1.05226563 17.03917969 0.11328125 17.96289062 C-0.86180415 18.89211077 -1.83706559 19.82114623 -2.8125 20.75 C-3.74707031 21.66587891 -4.68164062 22.58175781 -5.64453125 23.52539062 C-10.35031759 28.10941886 -15.15306188 32.53383836 -20.13232422 36.81762695 C-22.36621169 38.8051441 -24.36168868 40.9793521 -26.375 43.1875 C-29.03757147 45.82280965 -30.82628737 47.31901766 -34.25 48.9375 C-40.28544585 47.87864985 -43.57247284 43.50586937 -47.8125 39.3125 C-48.97068036 38.29514799 -50.13638131 37.28630801 -51.30859375 36.28515625 C-51.9001123 35.77106201 -52.49163086 35.25696777 -53.10107422 34.72729492 C-54.26117029 33.72031365 -55.43050299 32.72385122 -56.60986328 31.73950195 C-59.56096762 29.11406444 -60.77460937 27.45779833 -61.78125 23.59765625 C-61.8125 20.3125 -61.8125 20.3125 -60.25 17.875 C-57.11433476 15.86495818 -55.49415422 15.89381992 -51.8125 16.3125 C-49.25 18.10546875 -49.25 18.10546875 -46.8125 20.5 C-45.95914062 21.31726563 -45.10578125 22.13453125 -44.2265625 22.9765625 C-43.42992187 23.74742187 -42.63328125 24.51828125 -41.8125 25.3125 C-39.84117622 27.01890279 -37.83292317 28.66426005 -35.8125 30.3125 C-32.15959163 28.28323993 -29.36582138 26.09429209 -26.44921875 23.109375 C-25.64419922 22.29339844 -24.83917969 21.47742188 -24.00976562 20.63671875 C-23.18154297 19.78722656 -22.35332031 18.93773437 -21.5 18.0625 C-15.78918854 12.22999011 -10.02255871 6.61212567 -3.8125 1.3125 C-2.8125 0.3125 -2.8125 0.3125 0 0 Z " fill="#1B9D62" transform="translate(344.8125,307.6875)"/>
<path d="M0 0 C0.33 0 0.66 0 1 0 C1 9.57 1 19.14 1 29 C4.96 29 8.92 29 13 29 C13 20.42 13 11.84 13 3 C13.33 3 13.66 3 14 3 C14 11.58 14 20.16 14 29 C26.21 29 38.42 29 51 29 C51 29.33 51 29.66 51 30 C38.46 30 25.92 30 13 30 C13.07900998 37.10525652 13.07900998 37.10525652 13.18017578 44.21020508 C13.1851709 45.09603271 13.19016602 45.98186035 13.1953125 46.89453125 C13.20578613 47.80050049 13.21625977 48.70646973 13.22705078 49.63989258 C13 52 13 52 11 55 C7.5625 55.375 7.5625 55.375 4 55 C3.01 54.01 2.02 53.02 1 52 C1 44.74 1 37.48 1 30 C-20.45 30 -41.9 30 -64 30 C-64 37.26 -64 44.52 -64 52 C-67 55 -67 55 -70.5625 55.3125 C-74 55 -74 55 -76 53 C-76 45.08 -76 37.16 -76 29 C-50.92 29 -25.84 29 0 29 C0 19.43 0 9.86 0 0 Z " fill="#27A36A" transform="translate(263,152)"/>
<path d="M0 0 C3.96 0 7.92 0 12 0 C12.08074862 3.77125953 12.1403818 7.54079993 12.1875 11.3125 C12.21263672 12.38435547 12.23777344 13.45621094 12.26367188 14.56054688 C12.27817383 16.10258789 12.27817383 16.10258789 12.29296875 17.67578125 C12.31653442 19.0975769 12.31653442 19.0975769 12.34057617 20.5480957 C12 23 12 23 10.7043457 24.81323242 C7.89515192 26.76932624 5.30082271 26.30007479 2 26 C0 24 0 24 -0.22705078 21.56982422 C-0.21657715 20.5748291 -0.20610352 19.57983398 -0.1953125 18.5546875 C-0.18886719 17.47832031 -0.18242187 16.40195313 -0.17578125 15.29296875 C-0.15902344 14.16503906 -0.14226562 13.03710938 -0.125 11.875 C-0.11597656 10.73933594 -0.10695312 9.60367188 -0.09765625 8.43359375 C-0.07403199 5.62230663 -0.0381601 2.81112738 0 0 Z " fill="#1A9E60" transform="translate(187,181)"/>
</svg>
