<?xml version="1.0" encoding="UTF-8"?>
<svg version="1.1" xmlns="http://www.w3.org/2000/svg" width="512" height="512">
<path d="M0 0 C168.96 0 337.92 0 512 0 C512 168.96 512 337.92 512 512 C343.04 512 174.08 512 0 512 C0 343.04 0 174.08 0 0 Z " fill="#000000" transform="translate(0,0)"/>
<path d="M0 0 C3.16049088 2.28764773 6.00935757 4.70360637 8.7265625 7.50390625 C8.2625 6.42109375 8.2625 6.42109375 7.7890625 5.31640625 C6.79269282 2.6789571 6.10367069 0.29450682 5.7265625 -2.49609375 C6.0565625 -3.15609375 6.3865625 -3.81609375 6.7265625 -4.49609375 C9.37246264 -4.52294054 12.01809346 -4.54285732 14.6640625 -4.55859375 C15.41880859 -4.56697266 16.17355469 -4.57535156 16.95117188 -4.58398438 C18.87650563 -4.59261816 20.80191831 -4.54833708 22.7265625 -4.49609375 C24.45797743 -2.76467882 23.84633829 -0.53859331 23.85098267 1.76869202 C23.84558975 2.89941383 23.84558975 2.89941383 23.84008789 4.05297852 C23.84023392 4.84316376 23.84037994 5.633349 23.8405304 6.44747925 C23.83983107 9.07178447 23.83203777 11.69601961 23.82421875 14.3203125 C23.82235464 16.1349229 23.8209307 17.94953381 23.81993103 19.7641449 C23.81610529 24.54980855 23.80627454 29.33544205 23.79522705 34.12109375 C23.78501413 39.00064689 23.78043367 43.88020489 23.77539062 48.75976562 C23.76465231 58.34116124 23.74705507 67.92252653 23.7265625 77.50390625 C18.1165625 77.50390625 12.5065625 77.50390625 6.7265625 77.50390625 C5.7265625 72.50390625 5.7265625 72.50390625 7.6640625 69.19140625 C8.3446875 68.30453125 9.0253125 67.41765625 9.7265625 66.50390625 C9.27667969 66.86742187 8.82679688 67.2309375 8.36328125 67.60546875 C1.12945575 73.25916002 -6.82472985 79.17237265 -16.2734375 79.50390625 C-17.15515625 79.57609375 -18.036875 79.64828125 -18.9453125 79.72265625 C-29.47078366 80.26801745 -38.39851765 76.72718455 -46.53515625 70.08984375 C-54.5424125 62.78434704 -60.68980692 52.75002095 -61.57421875 41.76953125 C-61.59375026 40.43112639 -61.59714236 39.09240672 -61.5859375 37.75390625 C-61.58029785 37.0479834 -61.5746582 36.34206055 -61.56884766 35.61474609 C-61.29365653 23.70523694 -56.6631338 13.96006456 -48.5859375 5.25390625 C-35.46266643 -7.21193698 -15.3228768 -10.08361137 0 0 Z " fill="#2EEF9C" transform="translate(426.2734375,215.49609375)"/>
<path d="M0 0 C1.97135648 1.44782775 3.86576916 2.95474413 5.7578125 4.50390625 C7.08721735 5.5091229 8.41954333 6.51052143 9.7578125 7.50390625 C9.2628125 6.61703125 8.7678125 5.73015625 8.2578125 4.81640625 C6.81263833 1.62497996 6.36649565 -0.07207134 6.7578125 -3.49609375 C8.51341192 -5.25169317 10.79363692 -4.62831294 13.12890625 -4.6328125 C13.83144531 -4.62894531 14.53398437 -4.62507812 15.2578125 -4.62109375 C15.96035156 -4.62496094 16.66289062 -4.62882813 17.38671875 -4.6328125 C22.63119872 -4.62270753 22.63119872 -4.62270753 23.7578125 -3.49609375 C23.85285501 -0.97068373 23.88338408 1.52727751 23.87133789 4.05297852 C23.87148392 4.84316376 23.87162994 5.633349 23.8717804 6.44747925 C23.87108107 9.07178447 23.86328777 11.69601961 23.85546875 14.3203125 C23.85360464 16.1349229 23.8521807 17.94953381 23.85118103 19.7641449 C23.84735529 24.54980855 23.83752454 29.33544205 23.82647705 34.12109375 C23.81626413 39.00064689 23.81168367 43.88020489 23.80664062 48.75976562 C23.79590231 58.34116124 23.77830507 67.92252653 23.7578125 77.50390625 C18.1478125 77.50390625 12.5378125 77.50390625 6.7578125 77.50390625 C5.7578125 72.50390625 5.7578125 72.50390625 7.6953125 69.19140625 C8.3759375 68.30453125 9.0565625 67.41765625 9.7578125 66.50390625 C9.31953125 66.86742187 8.88125 67.2309375 8.4296875 67.60546875 C-2.33744508 76.14039092 -12.522695 80.35156368 -26.2421875 79.50390625 C-36.68781627 77.73802632 -45.66287304 72.22091038 -52.41796875 64.13671875 C-59.61700249 53.74667861 -62.29606463 43.00199836 -61.2421875 30.50390625 C-59.54015729 22.15909525 -56.61124775 15.12098051 -51.2421875 8.50390625 C-50.74074219 7.87871094 -50.23929688 7.25351563 -49.72265625 6.609375 C-37.41623383 -7.13429384 -15.28946979 -10.20185876 0 0 Z " fill="#2EEE9C" transform="translate(246.2421875,215.49609375)"/>
<path d="M0 0 C3.90787568 2.75768532 6.90983709 5.96167724 9.90234375 9.67578125 C11.23370073 11.43381121 11.23370073 11.43381121 13.3125 12.3125 C12.77625 11.405 12.24 10.4975 11.6875 9.5625 C10.3125 6.3125 10.3125 6.3125 10.91796875 4.30859375 C12.69686285 1.76233356 14.56015881 0.66148785 17.25 -0.875 C18.56291016 -1.63876953 18.56291016 -1.63876953 19.90234375 -2.41796875 C26.94002122 -6.12501118 36.62510212 -5.70198246 44.30859375 -4.0390625 C53.34122811 -0.74165776 59.11796214 5.28663612 63.98828125 13.39453125 C67.76641101 21.71979062 68.74638864 29.32315268 68.640625 38.41015625 C68.63875183 39.52563339 68.63687866 40.64111053 68.63494873 41.79039001 C68.62826954 44.12746204 68.61443848 46.46452368 68.59375 48.80151367 C68.56231832 52.39577506 68.55274618 55.98959854 68.546875 59.58398438 C68.53771514 61.85938041 68.52734263 64.13477195 68.515625 66.41015625 C68.51137512 67.48918716 68.50712524 68.56821808 68.50274658 69.6799469 C68.49313904 70.6686528 68.48353149 71.6573587 68.47363281 72.67602539 C68.46680481 73.54965225 68.45997681 74.42327911 68.45294189 75.32337952 C68.3125 77.3125 68.3125 77.3125 67.3125 78.3125 C65.98206375 78.4108721 64.64656656 78.44328592 63.3125 78.4453125 C62.508125 78.44660156 61.70375 78.44789063 60.875 78.44921875 C60.029375 78.44535156 59.18375 78.44148438 58.3125 78.4375 C57.466875 78.44136719 56.62125 78.44523437 55.75 78.44921875 C54.945625 78.44792969 54.14125 78.44664062 53.3125 78.4453125 C52.57 78.44418457 51.8275 78.44305664 51.0625 78.44189453 C49.3125 78.3125 49.3125 78.3125 48.3125 77.3125 C48.21048597 75.68716347 48.17680524 74.05747829 48.1706543 72.42895508 C48.16010262 70.86646782 48.16010262 70.86646782 48.14933777 69.27241516 C48.14517349 68.13708847 48.14100922 67.00176178 48.13671875 65.83203125 C48.11351418 63.44725686 48.08939658 61.06249121 48.06445312 58.67773438 C48.0293604 54.90318009 48.00001405 51.12894545 47.98657227 47.35424805 C47.9710892 43.72144384 47.93086489 40.08958548 47.88671875 36.45703125 C47.88862717 35.33182571 47.89053558 34.20662018 47.89250183 33.0473175 C47.7956449 26.83673295 47.50137128 23.02418619 43.3125 18.3125 C40.04019996 15.43684239 37.4389645 14.42081389 33.0625 14 C27.31092462 14.47929795 23.95925399 16.36900381 20.24365234 20.75415039 C17.41066253 25.10873785 17.7281466 29.66091148 17.73828125 34.70703125 C17.71703438 36.18897224 17.71703438 36.18897224 17.69535828 37.70085144 C17.65356197 40.84234647 17.63822987 43.98326635 17.625 47.125 C17.5959758 50.2843204 17.56150972 53.44349444 17.52250671 56.60270691 C17.49995555 58.56578442 17.48417514 60.52895314 17.47566223 62.49214172 C17.46511055 63.81437996 17.46511055 63.81437996 17.4543457 65.16333008 C17.45086624 65.9424324 17.44738678 66.72153473 17.44380188 67.52424622 C17.3125 69.3125 17.3125 69.3125 16.3125 70.3125 C13.46914952 70.41236975 10.65552837 70.45127881 7.8125 70.4375 C6.61560547 70.44330078 6.61560547 70.44330078 5.39453125 70.44921875 C-0.56089233 70.43910767 -0.56089233 70.43910767 -1.6875 69.3125 C-1.78354545 67.97340483 -1.81265314 66.62940012 -1.81347656 65.28686523 C-1.81728333 64.43184921 -1.82109009 63.57683319 -1.82501221 62.69590759 C-1.82603943 61.76371902 -1.82706665 60.83153046 -1.828125 59.87109375 C-1.8464653 57.90558748 -1.86603672 55.94009239 -1.88671875 53.97460938 C-1.9156033 50.86952072 -1.93749761 47.76514348 -1.93798828 44.65991211 C-1.94133936 41.66716085 -1.97600361 38.67605725 -2.015625 35.68359375 C-2.0085553 34.7655748 -2.0014856 33.84755585 -1.99420166 32.90171814 C-2.11169976 26.62375138 -3.46325087 22.08294695 -7.6875 17.3125 C-12.37631781 14.5339413 -16.2735063 13.62344626 -21.6875 14.3125 C-27.33150573 17.46011858 -30.5898404 20.21830302 -32.6875 26.3125 C-33.00922853 28.91452819 -33.00922853 28.91452819 -33.00634766 31.65356445 C-33.02621735 32.6942659 -33.04608704 33.73496735 -33.06655884 34.8072052 C-33.08388565 36.47465034 -33.08388565 36.47465034 -33.1015625 38.17578125 C-33.12092865 39.32290085 -33.1402948 40.47002045 -33.1602478 41.65190125 C-33.21994467 45.3095256 -33.26639002 48.96718159 -33.3125 52.625 C-33.35068883 55.10743547 -33.38974108 57.58985782 -33.4296875 60.07226562 C-33.52563819 66.15222712 -33.61071478 72.23226789 -33.6875 78.3125 C-36.66672593 78.33933987 -39.64571295 78.35926037 -42.625 78.375 C-43.47513672 78.38337891 -44.32527344 78.39175781 -45.20117188 78.40039062 C-46.01005859 78.40361328 -46.81894531 78.40683594 -47.65234375 78.41015625 C-48.4012085 78.41539307 -49.15007324 78.42062988 -49.92163086 78.42602539 C-51.6875 78.3125 -51.6875 78.3125 -52.6875 77.3125 C-52.79641421 75.76991559 -52.8365468 74.22240273 -52.84863281 72.67602539 C-52.85824036 71.68731949 -52.8678479 70.69861359 -52.87774658 69.6799469 C-52.88199646 68.60091599 -52.88624634 67.52188507 -52.890625 66.41015625 C-52.89632507 65.30328964 -52.90202515 64.19642303 -52.90789795 63.05601501 C-52.91737043 60.70296184 -52.9238908 58.34989527 -52.92773438 55.99682617 C-52.9373747 52.42146974 -52.96834995 48.8467041 -53 45.27148438 C-53.00653639 42.98437841 -53.01178436 40.69726833 -53.015625 38.41015625 C-53.0341452 36.818937 -53.0341452 36.818937 -53.05303955 35.1955719 C-53.0184837 23.48455948 -49.81480289 13.07321606 -41.8359375 4.26953125 C-29.73897269 -7.03221476 -14.09258617 -8.79588287 0 0 Z " fill="#2EED9A" transform="translate(109.6875,214.6875)"/>
<path d="M0 0 C1.11858398 0.00580078 1.11858398 0.00580078 2.25976562 0.01171875 C3.37254883 0.00591797 3.37254883 0.00591797 4.5078125 0 C10.06899561 0.01008374 10.06899561 0.01008374 12.32226562 1.13671875 C12.32591125 1.72030151 12.32955688 2.30388428 12.33331299 2.90515137 C12.37527919 9.00552511 12.44472299 15.10515636 12.52978516 21.20507812 C12.55792723 23.47843991 12.57917524 25.7518983 12.59326172 28.02539062 C12.61478444 31.30258405 12.66148447 34.57862406 12.71289062 37.85546875 C12.71411926 38.86411987 12.7153479 39.872771 12.71661377 40.9119873 C12.87053773 48.40882337 14.50342701 53.68136819 19.25976562 59.51171875 C23.76851468 63.06406649 28.06054056 63.6594986 33.69335938 63.5 C38.38772374 62.85129883 41.71014605 61.16336427 45.32226562 58.13671875 C50.06640269 51.40691767 51.05263638 44.96743667 50.99414062 36.9140625 C51.01326508 35.37402306 51.01326508 35.37402306 51.03277588 33.8028717 C51.06880272 30.55969898 51.07178316 27.3175731 51.07226562 24.07421875 C51.09387078 20.79911754 51.12224853 17.52417248 51.15460205 14.24916077 C51.17239229 12.21929644 51.18265042 10.18934976 51.18475342 8.15940857 C51.18856018 7.25078568 51.19236694 6.34216278 51.19628906 5.40600586 C51.19675232 4.60343857 51.19721558 3.80087128 51.19769287 2.97398376 C51.32226562 1.13671875 51.32226562 1.13671875 52.32226562 0.13671875 C55.1656161 0.036849 57.97923726 -0.00206006 60.82226562 0.01171875 C62.01916016 0.00591797 62.01916016 0.00591797 63.24023438 0 C69.19565795 0.01011108 69.19565795 0.01011108 70.32226562 1.13671875 C70.43329471 3.62902249 70.47965385 6.0938725 70.48339844 8.5871582 C70.49084579 9.75815315 70.49084579 9.75815315 70.4984436 10.95280457 C70.513119 13.55187855 70.51988049 16.15089127 70.52539062 18.75 C70.53114315 20.5582835 70.53690087 22.36656699 70.54266357 24.17485046 C70.55319254 27.97895594 70.55902097 31.78304019 70.5625 35.5871582 C70.567951 40.43440942 70.59189742 45.28137491 70.62047195 50.12853718 C70.63921991 53.87176795 70.64431063 57.61493206 70.64583588 61.3582058 C70.6488419 63.14297209 70.65680016 64.9277378 70.67002106 66.71245766 C70.76541458 80.59525361 70.61053692 95.39762098 60.45507812 106.10546875 C50.57493312 114.64654648 38.92724467 115.81704745 26.32226562 115.13671875 C26.2954225 112.32415594 26.27550375 109.51184634 26.25976562 106.69921875 C26.25138672 105.89677734 26.24300781 105.09433594 26.234375 104.26757812 C26.22575132 102.22376654 26.26998413 100.17987973 26.32226562 98.13671875 C27.96132259 96.49766178 30.00124876 96.97541226 32.25976562 96.88671875 C38.40146856 96.37424289 43.22577469 94.60625296 48.32226562 91.13671875 C50.70386382 88.30857089 51.30445949 86.19904022 52.32226562 82.63671875 C53.27103848 79.31601377 54.4983237 77.03123528 56.32226562 74.13671875 C54.85853516 74.87728516 54.85853516 74.87728516 53.36523438 75.6328125 C52.08013158 76.28005406 50.79497237 76.92718363 49.50976562 77.57421875 C48.86716797 77.89970703 48.22457031 78.22519531 47.5625 78.56054688 C38.70953032 83.00996687 29.04567538 83.43575876 19.33007812 81.55859375 C9.93751108 78.25769159 2.17450152 70.61508412 -2.39257812 61.8815918 C-7.67475328 50.5997728 -7.08006631 38.82354831 -6.95898438 26.63305664 C-6.9274345 23.41866621 -6.91796596 20.20476532 -6.91210938 16.99023438 C-6.90295347 14.95181686 -6.89258226 12.91340436 -6.88085938 10.875 C-6.8766095 9.91161209 -6.87235962 8.94822418 -6.86798096 7.9556427 C-6.85837341 7.07349594 -6.84876587 6.19134918 -6.83886719 5.2824707 C-6.83203918 4.50370071 -6.82521118 3.72493073 -6.81817627 2.92256165 C-6.50085398 -1.11247187 -3.33184 0.00605239 0 0 Z " fill="#2EEF9C" transform="translate(286.677734375,210.86328125)"/>
<path d="M0 0 C5.87182906 3.49572874 10.59626706 8.96403492 12.625 15.5 C13.47249705 23.65962272 13.47309199 31.59643041 8.625 38.5 C4.2023082 43.3523846 -0.20607939 46.15944858 -6.828125 46.87109375 C-14.60751553 47.00715305 -21.30396602 46.99284027 -27.375 41.5 C-34.02961228 33.23799345 -34.07609917 24.66593794 -33.375 14.5 C-31.83469297 8.27381916 -27.66919926 3.9560885 -22.375 0.5 C-15.7133939 -2.7637399 -6.829452 -3.02046214 0 0 Z " fill="#000201" transform="translate(416.375,229.5)"/>
<path d="M0 0 C5.88359046 3.52265926 10.54165227 8.84111164 13.1875 15.125 C14.40169324 23.47257855 13.71814142 30.01767818 9.6875 37.5625 C5.11341763 42.9100702 0.27444414 46.1809102 -6.80078125 46.93359375 C-15.68052257 47.08778742 -21.27226943 46.4078763 -27.828125 40.10546875 C-33.36395619 34.07650317 -33.7144966 27.56288957 -33.5546875 19.75 C-32.99882763 12.43416687 -30.54130953 7.96137386 -25.11328125 3.0390625 C-18.19742778 -2.63163731 -8.3111821 -3.58779742 0 0 Z " fill="#000201" transform="translate(236.3125,229.4375)"/>
</svg>
